<?xml version="1.0" ?><!DOCTYPE svg  PUBLIC '-//W3C//DTD SVG 1.1//EN'  'http://www.w3.org/Graphics/SVG/1.1/DTD/svg11.dtd'><svg enable-background="new 0 0 512 512" height="512px" id="Calque_1" version="1.1" viewBox="0 0 512 512" width="512px" xml:space="preserve" xmlns="http://www.w3.org/2000/svg" xmlns:xlink="http://www.w3.org/1999/xlink"><g><path d="M227.762,431.6c2.726,2.647,4.849,5.21,3.74,4.298c5.738,5.205,5.552,5.626,6.777,5.818   c3.765,3.259,7.161,7.355,2.956,3.569l10.441,9.811l-5.974-6.135c1.034,0.607,3.403,3.039,5.82,5.502   c0.606,0.613,1.214,1.229,1.801,1.824c0.296,0.295,0.587,0.584,0.87,0.865c0.25,0.246,0.674,0.661,0.611,0.574   c0.44,0.319,1.001,0.323,1.216,0.148l-0.07,3.474c0.01,0.393-0.006,0.783,0.11,1.156c0.037,0.092,0.078,0.186,0.2,0.258l0.32,0.049   l1.005-0.808l-0.434-2.202l-0.482-0.431c-0.169-0.159-0.216-0.257-0.262-0.362c-0.139-0.399-0.116-0.756-0.129-1.118   c-0.034-0.007-0.009-0.002-0.016-0.003l0.004-0.001l0.008-0.002l0.006-0.002c0.011,0.001-0.016-0.002-0.045-0.004h-0.005   l-0.01,0.07l-0.019,0.148l-0.036,0.296l-0.061,0.589c-0.071,0.781-0.104,1.552-0.103,2.321c-0.002-1.049,0.062-2.098,0.191-3.141   l0.025-0.195l0.013-0.091h0.007l0.026,0.002c0.025,0.002,0.017,0.002,0.018,0.002h-0.002l-0.007-0.001l-0.007-0.001h-0.001h-0.001   c0.003,0-0.007,0,0.006,0.001l0.009,0.001l0.001,0.093l0.004,0.195c0.013,0.262,0.017,0.52,0.108,0.798   c0.071,0.157,0.078,0.248,0.456,0.56l0.489,0.486l0.36,1.703l-0.821,1.006l-0.417,0.095c-0.319-0.042-0.335-0.193-0.398-0.311   c-0.045-0.126-0.064-0.255-0.078-0.383c-0.026-0.258-0.03-0.517-0.032-0.774l0.07-3.483c-0.212-0.002-0.433-0.046-0.634-0.127   c-0.101-0.04-0.195-0.09-0.28-0.144l-0.119-0.085c-0.015-0.011,0.005,0.003,0.002,0.007l-0.154-0.145l-2.688-2.667l-5.483-5.441   l0.69,0.405c-2.648-2.342-7.432-7.254-9.062-9.004c0.337,0.196,0.282-0.088,2.228,1.832c-13.201-13.267-4.315-2.814-15.438-13.653   C225.781,429.522,226.627,430.381,227.762,431.6z" fill="#202020"/><path d="M217.571,419.309l-5.154-4.078l-7.605-7.884c-0.274,0.098-6.065-5.394-2.409-1.41   c0.776,0.718,2.308,2.139,3.483,3.348c-1.265-0.463-10.499-10.099-8.629-7.417c6.231,6.019,7.083,7.048,11.178,10.491   c5.578,5.652,9.575,9.834,12.049,12.602c1.728,1.605,2.208,1.594,4.375,3.663c-0.474-0.464-0.909-0.89-1.454-1.423l0.375-0.832   c-1.893-1.639-3.502-3.369-5.475-5.315l9.77,8.36c-2.358-3.488-11.597-12.063-14.921-15.857   C217.059,418.479,209.386,410.294,217.571,419.309z" fill="#202020"/><path d="M224.859,428.624c0.059,0.058,0.156,0.154,0.224,0.221C225.015,428.778,224.918,428.681,224.859,428.624z" fill="#202020"/><path d="M306.873,117.053c-1.938-1.917-2.648-2.342-2.999-2.548l21.713,21.69c-0.521-0.838-6.575-7.285-2.304-3.203   c-1.688-2.038-7.512-7.562-8.549-8.171l1.814,1.331c-5.31-4.69-8.116-8.714-4.674-5.636l-0.425-0.419l-15.04-12.657   C301.426,112.594,300.737,110.947,306.873,117.053z" fill="#202020"/><path d="M289.573,432.003c2.756-2.867,3.045-3.27,2.667-3.01C291.276,430.045,290.369,431.054,289.573,432.003z" fill="#202020"/><path d="M292.895,104.484l-4.711-3.965C290.022,102.155,291.682,103.547,292.895,104.484z" fill="#202020"/><path d="M328.617,128.865c0.028-0.011,0.093,0.019,0.005-0.123l-2.139-1.757c0.029,0.029,0.038,0.038,0.05,0.05   C327.298,127.706,327.984,128.309,328.617,128.865z" fill="#202020"/><path d="M266.391,158.508c0.012,0.659,0.022,1.226,0.037,2.013C266.414,159.788,266.402,159.126,266.391,158.508z" fill="#202020"/><path d="M291.849,95.256l10.007,9.29c-1.455-1.116,3.25,3.487,1.02,1.652c0.762,0.708,4.276,4.088,3.424,3.061   l-1.979-1.958c5.582,4.594,2.691,1.322,11.503,9.381c-4.943-5.53-7.508-7.558-10.507-10.107c-0.966-0.915-1.775-1.682-2.594-2.457   l-8.714-7.331L291.849,95.256z" fill="#202020"/><path d="M258.584,445.43l-0.054-0.087C258.549,445.484,258.568,445.48,258.584,445.43z" fill="#202020"/><path d="M258.307,444.99l0.224,0.354C258.418,444.623,258.311,441.069,258.307,444.99z" fill="#202020"/><path d="M294.808,105.757c-0.224-0.04-0.892-0.484-1.913-1.273l3.516,2.957   C295.962,106.969,295.371,106.348,294.808,105.757z" fill="#202020"/><path d="M303.252,112.04l8.198,8.058l3.253,2.74C311.496,119.824,307.791,116.253,303.252,112.04z" fill="#202020"/><path d="M266.801,140.352c0.107,23.81-0.822-5.849-1.021,5.091c0.098,6.611,0.488,8.943,0.611,13.064   c-0.334-18.885,1.287,2.56,1.08-16.486c0.707,2.709,0.77,13.736,0.578,20.198c-0.681,7.315-0.498-6.392-1.166-8.049   c0.111,7.643,0.234,6.296,0.615,9.54c-0.158,12,0.836,24.829-0.107,31.995c0.15,8.686,0.476,8.115,0.834,13.11   c0.73,0.994,0.383-12.92,0.957-16.139c-0.061,0.667-0.184,1.968-0.287,1.591l0.154-7.51c-0.254,7.129-0.729-0.99-0.786-4.801   c-0.015-2.771-0.048-8.28,0.153-7.522l0.158,4.196c0.229-5.401-0.533-11.917-0.138-17.622c0.163-0.298,0.241,1.86,0.343,2.188   c-0.498-6.392-0.469-12.556-0.822-22.017l0.724,5.484c-0.8-7.568-0.573-24.705-0.15-36.581c-0.122,1.317-0.208,3.691-0.349,2.266   c-0.172-6.976,0.324-12.244,0.705-9.013c-0.15-1.704-0.193-4.178-0.187-7.077c0.013-1.45,0.026-3.005,0.041-4.623   c0.012-0.809,0.024-1.634,0.036-2.469c0.007-0.417,0.013-0.837,0.02-1.259l0.005-0.317c0.002-0.059,0.003-0.025,0.005-0.042   l0.01-0.03c0.052-0.158,0.098-0.227,0.083-0.361c-0.016-0.139-0.093-0.363-0.288-0.993c-0.009-0.03-0.018-0.06-0.018-0.067   c-0.12-0.551,0.038-0.824,0.475-0.818c0.219,0.003,0.507,0.076,0.864,0.218c0.179,0.071,0.375,0.159,0.589,0.265   c0.122,0.069,0.183,0.076,0.368,0.207l1.018,0.855l16.276,13.691c-1.195-1.065-2.458-2.222-3.729-3.448   c-2.296-3.193-3.829-4.618,1.403-0.232c-4.959-4.484-3.516-2.319-10.628-9.395c1.504,1.278,2.561,1.964,2.398,1.475   c-0.081-0.245-0.467-0.784-1.254-1.689c-0.394-0.453-0.887-0.998-1.493-1.643c-0.581-0.604-1.261-1.31-2.049-2.129   c-3.439-3.178-6.242-5.578-8.302-7.165c0.203,2.564,0.423,4.829,0.649,6.788c0.115,0.909,0.229,1.812,0.344,2.715l0.173,1.192   l0.086,0.557l0.086,1.278c0.456,6.964,0.894,14.092,1.221,22.036c-0.49,0.829-0.353,18.446-0.467,27.008   c-0.525-3.268-0.676-9.623-0.781-16.217c-0.018,4.138-0.049,11.263-0.07,16.548L266.801,140.352z" fill="#202020"/><path d="M265.158,86.085c-0.045,0.28-0.068,0.586-0.092,0.904C265.108,86.823,265.139,86.553,265.158,86.085z" fill="#202020"/><path d="M265.858,119.641c-0.02-0.083-0.033-0.054-0.054-0.083c0.013,0.691,0.024,1.383,0.038,2.092   C265.847,120.942,265.854,120.142,265.858,119.641z" fill="#202020"/><path d="M291.609,100.995c1.092,0.927,1.896,1.61,2.988,2.537c-0.647-0.595-1.459-1.341-2.24-2.06   C291.595,100.803,291.208,100.51,291.609,100.995z" fill="#202020"/><path d="M294.398,105.001l-0.681-0.397c0.422,0.445,0.718,0.758,1.091,1.152   C295.002,105.797,294.941,105.607,294.398,105.001z" fill="#202020"/><path d="M262.379,231.338l0.105,2.283C262.477,232.245,262.434,231.653,262.379,231.338z" fill="#202020"/><path d="M265.971,166.876c-0.047-8.28-0.73-0.99-0.733-12.705l-0.044,3.438c-0.313-8.404-0.17-23.176-0.195-33.163   c0.291,1.127,0.354-6.056,0.806-4.888c-0.106-6.827-0.206-13.587-0.673-17.104c0.076-2.115,0.012-4.778-0.047-7.585   c-0.022-1.403-0.045-2.843-0.067-4.267c0.001-0.712,0.002-1.421,0.004-2.119c0.005-0.33,0.011-0.656,0.017-0.98   c0.01-0.173,0.02-0.344,0.029-0.513c-0.137,0.573-0.368-0.444-0.523-0.834c-0.077-0.184-0.136-0.175-0.154,0.376   c-0.001,0.138-0.003,0.31-0.006,0.518c0.004,0.254,0.007,0.555,0.012,0.907c0.021,0.985,0.047,2.261,0.082,3.897   c-0.037-1.056-0.1-0.393-0.139-1.437c-0.381,8.43,0.266,11.81,0.274,19.071c-0.269,4.341-0.435-7.1-0.543-3.003   c0.251,9.067-0.325,28.454,0.69,27.853c0.07,6.599-0.152,7.51-0.338,9.478c1.08,10.438-0.465,38.739,0.918,38.644   c-0.055-3.811-0.025-10.021-0.322-15.612L265.971,166.876z" fill="#202020"/><path d="M281.726,91.213c-0.357-0.363-0.834-0.848-1.13-1.149C280.93,90.403,281.345,90.825,281.726,91.213z" fill="#202020"/><path d="M328.604,112.847l3.087,1.81c3.509,3.462,6.458,6.372,9.099,8.978c0.657,0.655,1.294,1.292,1.916,1.913   c0.337,0.338,0.67,0.673,0.998,1.004c0.705,0.729,1.321,1.55,1.813,2.43c1.999,3.538,1.989,7.806,0.242,11.217   c-0.216,0.427-0.46,0.839-0.724,1.235c-0.136,0.195-0.27,0.393-0.416,0.58c-0.141,0.184-0.282,0.365-0.501,0.614l-0.284,0.315   l-0.104,0.108l-0.281,0.284l-0.255,0.241c-0.346,0.318-0.713,0.616-1.097,0.893c-1.539,1.11-3.358,1.843-5.24,2.111   c-1.883,0.27-3.839,0.087-5.68-0.569c-0.919-0.33-1.809-0.774-2.631-1.329c-0.204-0.141-0.409-0.282-0.604-0.436l-0.294-0.231   l-0.363-0.313l-0.374-0.347l-0.348-0.345c-2.401-2.408-4.999-5.012-8.042-8.064c-0.844-1.02,0.69,0.404,1.469,1.126   c-8.645-8.497-21.334-21.454-27.866-27.399c-2.722-2.732-9.678-10.094-6.78-7.572c-1.383-1.271-2.955-2.733-4.461-4.279   c-0.175-0.634,3.481,3.35,3.757,3.25c-1.194-1.225-1.621-1.741-1.972-1.947c2.232,1.838-1.333-2.891,8.146,6.617   c3.14,4.212-6.646-6.522-5.068-3.76c3.145,3.153,3.008,2.557,3.35,2.755c3.999,4.026,3.745,4.069,3.396,3.991   c1.721,1.354,6.513,6.656,8.914,8.501c7.85,7.757-0.868,0.02,4.234,5.109l3.538,2.338l8.36,8.587   c6.238,6.028,6.059,5.331,6.114,4.836c0.028-0.247,0.114-0.443,1.092,0.277c0.489,0.36,1.2,0.95,2.238,1.876   c0.514,0.469,1.114,1.018,1.814,1.657c0.11,0.102,0.222,0.205,0.336,0.31l0.227,0.198l0.3,0.245   c0.352,0.273,0.739,0.526,1.157,0.757c0.834,0.461,1.805,0.809,2.867,0.975c-1.125-0.119-1.172-0.022-0.275,0.332   c0.877,0.296,2.874,0.735,5.426-0.18c1.248-0.448,2.616-1.303,3.694-2.503c1.162-1.287,2.034-2.97,2.344-4.922   c0.309-1.932,0.03-4.105-0.997-6.053c-0.253-0.486-0.551-0.955-0.889-1.396c-0.168-0.222-0.347-0.436-0.533-0.642l-0.41-0.437   c-0.39-0.409-0.785-0.822-1.184-1.24c0.247,0.242,0.507,0.496,0.778,0.762c0.137,0.132,0.275,0.267,0.418,0.404l0.226,0.218   c0.142,0.145,0.286,0.288,0.422,0.443c1.107,1.222,2.002,2.851,2.386,4.683c0.391,1.827,0.281,3.856-0.449,5.765   c-0.73,1.917-2.063,3.632-3.83,4.827c-1.772,1.207-3.958,1.838-6.116,1.762c-2.158-0.063-4.311-0.849-5.993-2.169   c-0.171-0.124-0.537-0.445-0.684-0.582l-0.372-0.359l-0.536-0.533c-0.353-0.355-0.7-0.707-1.042-1.052   c-0.682-0.694-1.332-1.371-1.94-2.024c6.637,7.576-9.836-9.723-6.686-5.499c1.883,1.629,4.297,3.899,6.793,6.349   c0.621,0.616,1.251,1.239,1.882,1.864l0.938,0.944l0.575,0.574l0.164,0.155l0.342,0.302c0.232,0.197,0.388,0.313,0.591,0.467   c3.131,2.331,7.331,2.703,10.624,1.346c0,0-1.074,0.479-2.226,0.696c-1.146,0.243-2.32,0.213-2.32,0.213   c3.809,0.163,7.383-1.822,9.313-4.723c2.009-2.935,2.445-6.763,1.1-10.113c-0.333-0.838-0.778-1.645-1.326-2.386   c-0.5-0.718-1.364-1.544-1.539-1.688c-0.646-0.61-1.315-1.243-2.016-1.905c-1.387-1.339-2.868-2.831-4.483-4.566   c-3.35-3.311-2.557-2.856-1.83-2.411C331.115,115.39,328.48,112.989,328.604,112.847z M335.984,119.977l4.396,4.514   C339.421,123.335,337.757,121.678,335.984,119.977z" fill="#202020"/><path d="M187.432,386.143c-0.426-0.459-0.917-0.986-1.304-1.402C186.395,385.065,186.896,385.59,187.432,386.143z" fill="#202020"/><path d="M179.639,133.19l2.6-2.561C181.212,131.617,180.383,132.44,179.639,133.19z" fill="#202020"/><path d="M238.583,70.288l7.023-7.303C242.808,65.802,240.62,68.1,238.583,70.288z" fill="#202020"/><path d="M218.16,416.954l0.122,0.13c0.222,0.2,0.392,0.353,0.626,0.563L218.16,416.954z" fill="#202020"/><path d="M256.015,217.229c-0.071,0.812-0.136,1.723-0.187,2.97C255.913,220.05,255.973,218.94,256.015,217.229z" fill="#202020"/><path d="M237.309,71.614c0.181-0.171,0.285-0.271,0.428-0.405c0.266-0.29,0.559-0.608,0.846-0.92L237.309,71.614z" fill="#202020"/><path d="M190.237,123.827c0.534-0.574,1.019-1.096,1.592-1.712C191.062,122.906,190.607,123.406,190.237,123.827z" fill="#202020"/><path d="M184.9,125.765c0.579-0.609,1.129-1.196,1.545-1.665L184.9,125.765z" fill="#202020"/><path d="M268.45,69.441l3.56,3.388C270.293,71.13,269.24,70.144,268.45,69.441z" fill="#202020"/><path d="M194.487,116.964c0.174-0.23,0.35-0.459,0.458-0.621C194.482,116.842,194.289,117.106,194.487,116.964z" fill="#202020"/><path d="M175.473,380.94c-0.08-0.079-0.166-0.163-0.213-0.209l-0.158-0.019L175.473,380.94z" fill="#202020"/><path d="M184.794,388.514c1.012,0.979,2.065,2,3.102,3.003C186.765,390.38,185.642,389.295,184.794,388.514z" fill="#202020"/><path d="M254.652,288.596c-0.123,1.301-0.27,4.354-0.409,2.929C254.42,294.015,254.849,293.849,254.652,288.596z" fill="#202020"/><path d="M187.829,375.466c-0.634-0.474-1.385-1.1-2.137-1.729C187.065,374.934,188.265,375.99,187.829,375.466z" fill="#202020"/><path d="M185.692,373.736c-0.681-0.59-1.409-1.221-2.019-1.748C184.374,372.611,185.055,373.201,185.692,373.736z" fill="#202020"/><path d="M247.618,255.504c0.058-0.323,0.105-0.825,0.121-1.504C247.624,254.199,247.599,254.742,247.618,255.504z" fill="#202020"/><path d="M190.265,394.079c0.69,0.405,14.272,13.366,3.183,2.131c0.875-0.015,7.367,6.956,10.453,9.821   c-2.058-2.266,1.36,0.79,0.863-0.025c-1.53-1.422-3.413-3.049-5.821-5.521c-0.918-1.325,2.922,2.239,5.737,5.206   c-3.327-3.797,4.872,4.167,0.011-1.054c-10.933-10.619-18.71-18.073-26.937-25.001c6.249,6.035,13.253,12.774,18.112,17.991   l-2.502-1.733c-5.355-6.032-9.123-9.295-14.688-14.931l12.376,12.784c5.573,6.214,1.557,2.345-3.158-2.23   C189.032,392.664,190.044,393.721,190.265,394.079z" fill="#202020"/><path d="M178.413,388.977l0.2,0.223c0.198,0.17,0.436,0.39,0.569,0.491L178.413,388.977z" fill="#202020"/><path d="M275.593,61.015l1.227,0.935C275.852,61.114,275.528,60.881,275.593,61.015z" fill="#202020"/><path d="M172.928,379.592l0.006,0.01C172.87,379.51,172.856,379.488,172.928,379.592z" fill="#202020"/><path d="M239.956,57.409c0.028-0.048,0.055-0.098,0.11-0.177C239.982,57.341,239.993,57.353,239.956,57.409z" fill="#202020"/><path d="M241.063,72.891c0.068-0.032,0.099-0.03,0.234-0.129C241.849,72.166,241.553,72.427,241.063,72.891z" fill="#202020"/><path d="M239.972,57.466c-0.012-0.012-0.041-0.006-0.016-0.057C239.948,57.443,239.914,57.502,239.972,57.466z" fill="#202020"/><path d="M231.973,91.162c0,0-0.479,0.347-1.193,0.933C230.564,92.383,230.857,92.173,231.973,91.162z" fill="#202020"/><path d="M205.595,116.4c-0.179,0.149-0.285,0.237-0.514,0.429L205.595,116.4z" fill="#202020"/><path d="M257.102,279.965c0.008-1.807-0.006-3.161-0.029-4.305C257.059,276.977,257.061,278.402,257.102,279.965z" fill="#202020"/><path d="M240.067,57.233c0.229-0.31,0.57-0.736,1.151-1.42C240.576,56.565,240.249,56.976,240.067,57.233z" fill="#202020"/><path d="M250.661,93.42c-0.021-0.389-0.04-0.754-0.06-1.123c-0.009,0.224-0.019,0.447-0.027,0.667L250.661,93.42z" fill="#202020"/><path d="M250.26,112.466c-0.062-0.65-0.126-0.949-0.182-1.313c0.226,6.797-0.02,19.287,0.559,20.765   c-0.014-2.307,0.326-14.266,0.665-12.228c-0.145-4.739,0.261-11.743,0.166-14.295c-0.316,7.779-0.488,0.841-0.684-4.412   c0.169-4.776,0.466,0.899,0.573-3.214l-0.064-11.082l-0.076,9.657l-0.557-2.925c0.019,0.356,0.032,0.601,0.053,0.982   C250.973,110.689,249.899,95.785,250.26,112.466z" fill="#202020"/><path d="M250.079,111.153c-0.035-1.019-0.078-1.914-0.137-2.61C249.951,110.08,250.008,110.677,250.079,111.153z" fill="#202020"/><path d="M249.161,177.695c0.026,0.836,0.053,1.744,0.088,2.883C249.233,180.035,249.194,178.776,249.161,177.695z" fill="#202020"/><path d="M320.415,128.678c0.086,0.318,6.558,7.268,6.74,6.845c-1.961-2.023-3.936-4.062-5.919-6.108   L320.415,128.678z" fill="#202020"/><path d="M251.648,358.962c0.003-1.056,0.007-2.116,0.011-3.177c-0.024-0.228-0.048-0.447-0.066-0.617   C251.53,355.814,251.608,357.906,251.648,358.962z" fill="#202020"/><path d="M251.504,122.623c-0.065-1.74-0.133-2.515-0.201-2.933C251.337,120.817,251.392,121.857,251.504,122.623z" fill="#202020"/><path d="M250.631,359.558c-0.122,1.347-0.309,3.331-0.472,3.612c-0.004,2.755,0.221,4.689,0.301,7.493   C250.397,367.5,250.44,363.838,250.631,359.558z" fill="#202020"/><path d="M250.468,370.892c-0.003-0.079-0.005-0.158-0.008-0.229C250.463,370.743,250.465,370.813,250.468,370.892z" fill="#202020"/><path d="M316.551,124.558c-0.598-0.557-1.213-1.13-1.848-1.72l1.01,0.848c-1.513-1.574-3.018-3.14-4.524-4.708   c-0.571-0.542-1.189-1.131-1.949-1.853c0.31,0.288,0.573,0.487,0.75,0.598c-0.489-0.513-0.967-1.014-1.444-1.515   c-3.989-3.363-13.365-12.281-16.188-14.736c-3.626-3.357-7.976-7.555-10.631-10.259c2.478,2.49,5.838,5.725,5.021,4.562   c-2.432-2.612-4.131-4.661-6.365-7.089c-1.118-1.214-2.369-2.523-3.913-4.045c-0.389-0.378-0.793-0.771-1.216-1.183   c-0.413-0.393-0.845-0.802-1.297-1.23c-0.817-0.762-1.706-1.569-2.654-2.405l4.61,4.596c0,0-0.759-0.675-1.896-1.687   c-0.916-0.789-2.136-1.841-3.356-2.894c-2.16-1.824-4.319-3.647-4.319-3.647c-1.59-1.868-0.64-1.086,1.02,0.415   c1.64,1.481,3.952,3.644,4.696,4.146c-1.832-1.672-3.48-3.303-5.096-4.965c-1.608-1.656-3.181-3.341-4.691-4.957   c-0.16,3.97-0.292,7.794,0.136,10.718c-0.244,0.129-0.57,0.317-0.829,1.543c-0.259,1.224-0.45,3.525-0.426,7.706   c0.558-5.973,0.358,4.967,0.954,0.066c0.279,2.862-0.176,9.242,0.189,9.718l-0.203-0.774c-0.772,14.146,0.439,18.777,0.838,24.829   c0.199,16.938-0.117,24.717-0.035,38.532c-0.327,0.543-1.227,4.304-1.193,9.846c0.443,2.577,0.648,15.078,1.215,16.354   c0.236-9.908-0.475-8.106-0.607-14.038c0.594-4.938,0.588-0.448,0.943-7.191c-0.232,5.443,0.309,24.593-0.248,30.554l-0.078-2.104   c-0.34,9.515-1.742,11.333-0.893,27.186l0.348,7.564c-0.057-0.364-0.123-0.406-0.174-0.601c-0.06,12.381-0.705,9.001-0.195,22.671   c-0.039-1.056-0.102-0.394-0.141-1.466c-0.318,7.792,0.322,15.649,0.455,21.54c-0.473,3.596-0.465-0.854-0.807-3.078   c-0.184,13.707,0.628,28.499,1.205,37.012l-0.277,8.835c-0.195-5.239-0.694-11.644-0.98-10.045   c0.096,4.859,0.318,3.919,0.229,10.791c-0.303-1.172-0.585-4.056-0.965-7.286c-0.506,14.212,1.072,3.177,0.145,13.123   c-0.007,4.465,0.436,7.058,0.801,7.547l-0.479,8.09c0.465,0.898,0.492,10.886,0.563,17.431c0.199,0.8,0.496-5.269,0.316-7.75   c0.365,0.488,0.537,7.452,0.529,11.93c-0.975,1.641,0.141,29.319-1.008,24.025c0.11,9.749,0.243,21.41,0.367,32.319   c0.063,5.088,0.125,10.001,0.181,14.427c0.067,4.023,0.144,7.47,0.238,10.044c0.423-0.446,0.68-0.718,0.928-0.979   c1.163-0.973,3.127-2.837,4.396-3.971c1.255-1.123,1.878-1.578,0.12,0.503c1.309-1.329,2.537-2.577,3.707-3.766   c1.153-1.207,2.248-2.353,3.304-3.457c2.263-2.419,4.357-4.658,6.45-6.894c4.175-4.481,8.362-8.929,14.139-14.517   c1.026-0.854-5.131,5.144-4.497,4.97c7.152-7.705,13.807-13.223,25.148-24.934c-1.927,1.952-2.35,2.659-2.548,3.001   c-0.316,0.087,4.484-4.959,7.355-8.052c1.735-1.616-2.149,2.314-1.121,1.462c2.825-2.741,5.547-5.419,8.191-8.051   c0.66-0.658,1.316-1.313,1.969-1.965l0.975-0.976c0.313-0.326,0.745-0.718,1.182-0.982c1.777-1.147,4.152-1.18,5.954-0.136   c1.816,1.012,2.986,3.056,2.941,5.124c-0.006,1.029-0.293,2.057-0.822,2.943c-0.13,0.224-0.28,0.434-0.438,0.638l-0.259,0.304   l-0.24,0.255l-0.914,0.941c-2.426,2.514-4.832,5.006-7.236,7.497c-9.603,9.98-19.152,19.983-30.239,31.04   c6.332-6.314,8.266-9.162,8.146-9.416l-6.203,6.187c-2.158,2.615-6.811,7.267-10.529,11.326c-0.563,0.393-2.548,2.191-0.726,0.154   c-6.35,5.887-10.92,10.874-15.807,16.234c-2.443,2.681-4.967,5.454-7.83,8.479c-1.433,1.514-2.949,3.09-4.585,4.748   c-0.829,0.831-1.685,1.688-2.567,2.572c-1.181,1.17-2.975,1.906-4.679,1.876c-0.291-0.031,2.527,0.174,4.647-2.184   c1.616-1.789,3.771-4.174,5.926-6.56c4.31-4.771,8.619-9.541,8.619-9.541l-4.813,4.173l7.565-8.403   c-5.021,4.516-8.585,9.247-9.506,9.475c0.91-1.105,3.37-3.502,3.259-3.766c-4.714,4.443-4.815,5.062-8.19,8.57   c8.364-9.772,26.154-27.541,35.551-37.283c1.45-1.561-1.119,1.459-1.313,1.797c3.881-3.928,6.443-6.052,11.236-11.089   c2.754-3.35-2.548,2.109-5.001,4.501c0.075-0.593,1.309-1.796,3.968-4.532c0.931-0.241,14.932-14.688,18.829-17.743   c7.153-7.261,6.354-6.908,5.543-6.48c-0.405,0.214-0.813,0.447-0.23-0.244c0.291-0.345,0.829-0.921,1.74-1.847   c0.458-0.459,1.006-1.009,1.659-1.663c0.329-0.325,0.685-0.677,1.068-1.056l0.249-0.244l0.147-0.152l0.048-0.056   c0.072-0.083,0.176-0.221,0.249-0.346c0,0,0.126-0.136,0.271-0.388c0.146-0.249,0.285-0.633,0.321-1.051   c0.043-0.417-0.032-0.851-0.14-1.163c-0.109-0.313-0.231-0.51-0.231-0.51c-0.595-0.666-1.475-1.039-2.371-0.988   c-0.445,0.027-0.884,0.153-1.265,0.375c-0.42,0.238-0.574,0.438-1.236,1.14c-2.228,2.34-4.544,4.774-6.894,7.242   c-4.723,4.913-9.628,9.912-14.292,14.492l1.935-1.961c1.129-1.466-1.119,0.574-2.155,1.437c-7.154,6.816-12.952,13.573-17.58,17.41   c-3.773,4.193-8.903,9.688-14.201,15.302c-1.52,1.595-3.049,3.199-4.567,4.794c-1.853,1.923-3.692,3.832-5.493,5.701   c-3.733,3.861-7.308,7.558-10.515,10.875c-0.696,0.437,0.054-0.499,1.565-2.153c1.517-1.658,3.811-4.05,6.318-6.645   c2.468-2.549,5.19-5.363,7.609-7.862c0.59-0.615,1.161-1.211,1.705-1.778c0.464-0.494,0.905-0.963,1.315-1.399   c0.72-0.78,1.324-1.453,1.757-1.968l-9.879,9.884c3.26-3.266,5.573-5.683,7.328-7.612c1.443-1.618,2.594-3.017,3.982-4.7   c-1.858,1.81-3.304,3.275-4.704,4.738c-1.585,1.647-2.985,3.152-4.408,4.693c-2.839,3.075-5.789,6.319-10.262,10.924   c0.66-0.885,0.109-0.49-2.153,1.714c0.005-0.732,0.011-1.726,0.019-2.889c0,0.021-0.49-0.586-0.49-0.607   c0.041-0.187,0.078-0.903,0.109-2.736l-0.299-21.345c-0.053,0.92-0.119,1.621-0.188,2.225c-0.037,0.302-0.071,0.579-0.105,0.849   c-0.035,0.365-0.068,0.719-0.104,1.081c-0.133,1.463-0.241,3.126-0.243,6.259c0.285-2.361,0.342,2.782,0.334,8.841   c-0.16-2.445-0.228-0.896-0.288,1.392c-0.061,2.274-0.114,5.255-0.245,5.455c-0.013-6.377-0.026-13.482-0.039-20.04   c-0.021-2.623-0.042-5.137-0.061-7.413c-0.033-2.004-0.063-3.798-0.088-5.271l0.451-1.914c0.113-8.563-0.138-17.604-0.006-23.412   l0.238,1.831c0.139-10.273-0.152-20.389,0.287-29.51c-0.514-9.163-0.943-20.699-1.48-28.188c-0.582-4.006,0.729-26.888-0.09-37.219   c0.063-0.695,0.438,7.096,0.658,10.621c0.09-6.872-0.633-12.336-0.021-14.49c-0.205,15.422,0.488-0.828,0.662,6.118   c-0.012-7.22-0.121-14.833-0.34-18.375c0.004,11.686-0.846-4.15-0.58,7.68c-0.514-9.167-0.719-21.677-0.52-32.6   c0.264,0.107,0.387-1.239,0.496-5.311l-0.383-3.285c0.068-5.112,0.453,9.883,0.589-0.406c-0.655-10.587,0.372-31.883-0.839-36.519   c0.478-8.069,0.485,15.356,1.071,3.194c0.438,7.075-0.064,16.834,0.541,19.167c-0.173-6.934,0.511-2.531,0.517-7.004l-0.373-7.734   l-0.022,1.711c-0.571-12.978-0.297-33.541-0.395-50.114c-0.609-14.038-1.489-23.702-1.422-40.541   c0.357,4.971,0.344-13.984,0.999-3.384c0.158-3.896,0.144-7.767,0.057-10.683s-0.246-4.877-0.379-4.954   c-0.09,6.855-0.084,2.411-0.215,8.185c-0.32-3.898-0.305-12.882-0.096-16.573c-0.023,1.711,0.037,1.061,0.139,1.438   c0.215-8.186-0.318-3.923-0.453-9.838c0.112-0.469,0.175-1.52,0.211-2.917c0.011-0.729,0.022-1.547,0.036-2.424   c0.003-1.282,0.006-2.65,0.01-4.061c0.003-5.627-0.021-12.012,0.094-15.914c-0.173-3.636-0.347-7.272-0.347-10.49l1.333,0.921   c-4.409-3.815,8.502,8.718,9.886,10.65c3.125,2.884,6.002,5.54,9.283,8.568c1.244,1.167,2.565,2.406,4.026,3.775   c1.251,1.198,2.602,2.532,4.094,4.064c-2.653-2.344,5.294,5.742,5.099,6.148c10.068,10.646,17.975,16.331,27.353,26.572   c-0.375-0.234-2.554-2.016,0.238,0.927c2.343,2.174,6.261,6.164,8.71,8.547l-0.084-0.067c0.05,0.043,0.081,0.071,0.134,0.117   c1.2,1.167,1.981,1.874,2.084,1.83c2.227,1.907,3.917,3.355,6.143,5.262c0.138,0.121,0.278,0.243,0.421,0.367l0.106,0.094   l0.027,0.023l0.014,0.012l0.006,0.006l0.004,0.003c0.194-0.03-0.261,0.045-0.213,0.039l0.042,0.06   c0.052,0.078,0.146,0.196,0.06,0.127l-0.071-0.03l-0.01,0.011l-0.016,0.021l-0.008,0.013c0.007-0.003,0.021-0.091,0.017-0.065   c-0.017,0.014,0.074,0.141-0.043-0.015l-0.032-0.034l-0.002-0.001l-0.001-0.001c-0.035,0.044,0.08-0.101-0.081,0.099l0.024-0.017   l0.047-0.033l0.096-0.067l0.047-0.033l-0.016,0.025l-0.027,0.054c-0.023,0.052-0.009,0.041-0.004,0.048   c0.025,0.02,0.033,0.023,0.029,0.021c-0.008-0.006-0.063-0.02-0.068-0.018c-0.008-0.001,0.039,0.003,0.068,0.018   c0.003,0.001-0.001,0-0.022-0.016c-0.007-0.008-0.018-0.004-0.016-0.021c0.014-0.038,0.036-0.079,0.054-0.11l-0.207,0.146   l-0.003,0.002c-0.073,0.09,0.096-0.121,0.079-0.099l0.001,0.001l0.002,0.002l0.004,0.004l0.009,0.009l0.019,0.02   c0.083,0.097,0.059,0.088,0.052,0.055c-0.012-0.038-0.005-0.059-0.01-0.025c-0.001,0.033-0.035,0.082,0.003,0.024   c0.02-0.003-0.012-0.032,0.044-0.008c0.027-0.002,0.141,0.102,0.041-0.024l-0.08-0.116l-0.021-0.029   c1.506-1.146,0.416-0.319,0.751-0.576l-0.003-0.003l-0.007-0.006l-0.012-0.012l-0.05-0.047l-0.197-0.188   c-0.262-0.248-0.516-0.488-0.759-0.719c-0.49-0.458-0.937-0.877-1.321-1.237l-2.912-2.231c-1.937-2.979-7.431-7.25-9.127-9.297   c2.747,2.136,7.599,6.757,12.864,11.852l0.992,0.96l0.499,0.483l0.124,0.121l0.063,0.061l0.032,0.031l0.016,0.015l0.008,0.007   c0.212-0.168-1.821,1.488-0.957,0.792l0.102,0.146c0.012,0.019,0.045,0.06,0.04,0.061l-0.039-0.022   c-0.023-0.012-0.063-0.03-0.076-0.031l-0.012,0.015l-0.016,0.021c-0.007,0.01-0.005,0.008-0.005,0.008   c0.006-0.011,0.013-0.036,0.016-0.053c0.002-0.043-0.001,0.015,0.016,0.046c0.006,0.015,0.003,0.001-0.031-0.041l-0.039-0.044   l-0.012-0.013l-0.006-0.006l-0.003-0.002l-0.001-0.001c0.072-0.09-0.102,0.122-0.079,0.097l0.143-0.101l0.067-0.046l-0.022,0.039   c-0.014,0.025-0.027,0.057-0.034,0.079l0.024,0.019c0.057,0.031-0.039-0.015-0.052-0.007c-0.021,0.003,0.053-0.006,0.07-0.018   c0.006-0.002-0.002-0.002-0.051,0.038l-0.04,0.036l-1.143,1.088l-0.112-0.105l-0.443-0.415c-0.59-0.545-1.16-1.073-1.708-1.58   c0.582,0.703,1.266,1.494,2.035,2.359c0.465-0.456,0.935-0.917,1.411-1.384l0.036-0.029c0.018-0.012,0.02-0.012,0.013-0.009   c-0.016,0.008-0.066,0.019-0.071,0.017c-0.01-0.002,0.038,0.003,0.063,0.015c0.011,0.004,0.013,0.007-0.009-0.007   c-0.004-0.008-0.052,0.002,0.02-0.115c0.034-0.042-0.021,0.002-0.061,0.029l-0.118,0.083l-0.015,0.01   c0.034-0.043-0.086,0.104,0.074-0.095l0.001,0.001l0.005,0.004l0.01,0.01l0.021,0.022c0.085,0.099,0.056,0.086,0.048,0.045   c-0.01-0.039-0.002-0.049-0.01-0.008c-0.004,0.02-0.012,0.038-0.013,0.041l0.009-0.014c0.021,0.004-0.022-0.07,0.116,0.009   c0.046,0.037,0.004-0.018-0.029-0.065l-0.094-0.133c3.482-3.125,0.962-0.871,1.737-1.57l-0.007-0.007l-0.015-0.014l-0.027-0.029   l-0.056-0.057l-0.112-0.114l-0.448-0.458l-0.904-0.921c-1.216-1.229-2.454-2.48-3.698-3.738c-2.507-2.497-5.042-5.022-7.487-7.458   l4.093,4.507l-5.114-5.102l4.577,5.312c-4.774-4.903-9.052-8.992-13.403-13.386c5.127,5.113,6.646,7.583,3.824,4.611   c-5.368-6.044-6.167-5.725-10.508-10.107c2.396,2.459,5.548,5.623,3.315,3.785c-8.186-9.014-10.778-11.066-18.156-19.33   c0.395,1.544-9.829-9.714-11.472-10.415l3.581,3.677c0,0-2.011-1.837-4.022-3.675c-0.503-0.459-1.006-0.919-1.478-1.35   c-0.235-0.215-0.463-0.423-0.679-0.621c-0.332-0.313-0.646-0.608-0.935-0.881c-1.19-1.125-1.983-1.875-1.983-1.875   c-2.78-3.014-3.595-4.005-3.421-3.976c0.167,0.023,1.307,1.053,2.272,1.916c0.962,0.86,1.748,1.553,1.143,0.837   c-0.611-0.721-2.602-2.837-7.327-7.728c-6.423-6.465-10.388-10.294-13.345-13.057c0.236,8.206,0.592,12.824,0.632,24.356   c-0.343-4.489-0.652-13.797-0.796-24.75c2.882,2.8,6.05,5.924,9.248,9.126l-6.909-7.237c1.686,1.488,6.527,6.252,11.932,11.632   c4.642,4.652,9.738,9.759,13.132,13.16c-7.608-6.826,3.257,3.497,6.234,7.087c0.933,0.273-3.753-4.309,1.983,0.898   c-2.564-2.562-4.034-4.029-5.679-5.671c-1.96-2.006-4.129-4.226-8.019-8.207c1.373,1.382,2.652,2.669,3.848,3.872   c0.773,0.761,1.493,1.468,2.165,2.13c1.354,1.313,2.541,2.425,3.609,3.397c2.137,1.945,3.804,3.334,5.411,4.672   c3.215,2.674,6.189,5.14,12.202,11.43c-5.819-5.521,1.501,2.453,2.023,3.295c2.709,2.629,8.2,7.963,10.509,10.107l-1.539-2.492   c7.373,6.962,8.854,10.46,17.616,18.241c1.36,0.79-7.179-7.373-5.636-5.939c2.904,2.754,5.289,5.123,7.385,7.29   c0.521,0.544,1.027,1.073,1.521,1.589c0.245,0.26,0.487,0.518,0.727,0.772l0.356,0.381l0.088,0.095l0.044,0.047l0.022,0.024   l0.011,0.012l0.006,0.006c-0.925,0.848,2.076-1.889-2.071,1.901l0.148,0.213c-0.037-0.023-0.079-0.043-0.119-0.057l-0.017,0.022   l-0.016,0.022c-0.003,0.007,0.002-0.003,0.007-0.016c0.011-0.029,0.011-0.062,0.01-0.049c-0.001,0.009,0.012,0.056,0.016,0.063   c0.002,0.003-0.001-0.005-0.022-0.032l-0.046-0.055l-0.018-0.018l-0.008-0.008c0.016-0.021-0.15,0.188-0.077,0.097l0.007-0.004   l0.013-0.009l0.025-0.018l0.103-0.072c0.036-0.026,0.079-0.059,0.05-0.023c-0.018,0.029-0.049,0.094-0.043,0.1l0.02,0.015   l0.02,0.013c0.005,0.003-0.006-0.003-0.021-0.008c-0.031-0.011-0.065-0.01-0.046-0.01c0.016,0.001,0.073-0.019,0.069-0.019   c-0.003,0.002-0.022,0.012-0.07,0.056c-0.478,0.46-0.957,0.923-1.438,1.387l-0.191-0.212l-0.387-0.428   c-1.049-1.143-2.162-2.355-3.364-3.666c-0.711-0.425-0.896-0.006-4.662-3.269c1.39,0.818-1.064-1.929,3.099,1.816   c-3.238-3.48-7.429-7.251-10.505-10.104c6.827,7.162-3.272-2.451-4.732-3.568c-3.574-3.672,1.39,0.819,3.701,2.965   c-2.831-2.985-5.866-6.863-7.946-8.087c0.187-0.415,8.923,7.339,14.393,12.653l-3.586-3.683c2.658,2.351,3.083,2.862,6.645,6.518   c-3.299-3.766-2.692-3.675-1.655-3.066c0.419,0.507-0.329-0.186,0.07,0.299c2.829,2.982,5.141,5.129,4.627,4.295   c3.017,2.208-3.777-4.283-5.544-6.453c-1.516-1.461-3.03-2.922-4.516-4.354l-16.396-13.797c-6.601-6.299-9.189-9.509-13.838-14.55   l-1.678-0.983c-5.575-5.648-10.762-11.053-6.725-7.896c0.086,0.318,0.854,1.032,2.057,2.267c0.208,0.114,0.522,0.362,0.904,0.689   c0.142,0.091,0.222,0.142,0.339,0.218c-6.128-5.893-9.953-9.571-10.306-9.91c10.708,9.701,1.14-0.121,3.463,0.971l-10.508-10.106   c6.053,6.443-0.187,0.416-2.487-1.718c-0.082-0.294-0.894-1.188-2.084-2.392c-0.602-0.595-1.289-1.276-2.024-2.002   c-0.37-0.359-0.753-0.73-1.142-1.108c-0.188-0.173-0.378-0.349-0.568-0.526c-0.235-0.21-0.455-0.432-0.693-0.624   c-0.245-0.185-0.523-0.314-0.804-0.386c-0.567-0.145-1.122-0.044-1.525,0.116l0.136-0.174c-0.548,0.103-1.007,0.587-1.521,1.078   c-0.39,0.382-0.797,0.78-1.214,1.188c-0.581,0.581-1.177,1.175-1.779,1.776c-2.402,2.412-4.88,4.955-6.92,7.088   c0.306-0.074-4.481,5.846-6.712,8.759c7.292-7.032,3.18-2.643,3.969-3.002c-0.76,0.722-2.097,2.05-2.208,2.25   c-0.927,1.124,1.522-1.26,1.839-1.348c3.729-3.885,7.51-7.824,10.741-11.19c0.797-0.851,1.56-1.667,2.28-2.436   c0.356-0.388,0.701-0.765,1.035-1.128c0.111-0.144,0.127-0.196,0.195-0.3c0.209-0.376,0.432-0.78,0.708-1.031   c-0.484-0.069-0.743,0.383-0.961,0.714l-0.166,0.256c0.017-0.002-0.167,0.194-0.285,0.324c-0.131,0.141-0.264,0.283-0.398,0.428   c-0.543,0.575-1.137,1.167-1.827,1.785c0.693-0.824,1.447-1.677,2.26-2.565c0.126-0.158,0.257-0.319,0.39-0.486   c0.124-0.145,0.246-0.304,0.394-0.446c0.298-0.281,0.744-0.426,1.191-0.362c0.223,0.034,0.444,0.122,0.637,0.262   c0.192,0.141,0.349,0.333,0.528,0.505c0.859,0.865,1.772,1.784,2.729,2.746l1.783,2.364l6.522,6.208   c-2.811-2.503-1.515-0.601-8.25-7.221c0.578,1.126,6.685,6.561,10.682,10.741l2.476,1.707c-1.02-0.591,7.691,8.203,1.18,2.277   l-10.432-9.802l2.549,3.075l-8.627-8.479l2.218,1.819c-1.108-1.078-2.066-2.008-2.892-2.811c-0.346-0.342-0.663-0.657-0.955-0.946   c-0.024-0.025-0.045-0.049-0.063-0.073c-0.181-0.272-0.258-0.541-0.442-0.74c-0.093-0.086-0.267-0.141-0.466,0.045   c-0.05,0.045-0.104,0.099-0.162,0.163c-0.028,0.033-0.059,0.067-0.09,0.103l-0.062,0.071c-0.115,0.119-0.233,0.242-0.355,0.368   c-0.962,1.015-2.124,2.241-3.539,3.734c-3.863,4.795-8.467,9.5-17.057,17.863c6.029-6.238,0.301-0.958,2.339-3.537   c-6.451,6.062-8.178,8.558-11.242,11.985c-1.839,1.347-3.174,2.279,2.45-3.273c0.184-1.216-7.263,7.441-8.303,7.42   c-18.499,18.531-13.12,16.551-35.426,37.53l0.597-1.025c-1.691,1.745-3.292,3.398-4.824,4.979   c-0.385,0.394-0.766,0.783-1.142,1.167c0.347,0.39-3.05-3.356-1.617-1.767l-0.011,0.007l-0.021,0.015l-0.042,0.03l-0.083,0.06   c-0.09,0.072-0.012-0.012-0.013-0.028c0.047-0.09,0.003-0.049,0.003-0.07c-0.018-0.012-0.017-0.011-0.015-0.01   c0.006,0.004,0.045,0.018,0.059,0.018l0.009,0.001h0l0,0h-0.001h0h0c-0.001,0.024,0.012-0.223,0.006-0.112l0.003,0.192   c0.001,0.088,0.001-0.031-0.002-0.036c-0.01-0.087-0.007-0.023-0.014-0.042c-0.041-0.005-0.12,0.071,0.031-0.055l0.013-0.013   l0.006-0.006l0.001-0.001c0.018,0.017-0.153-0.158-0.077-0.079l0.013,0.019l0.108,0.154c0.049,0.067-0.118-0.053-0.098-0.017   l-0.028,0.039l0.013-0.039c0.01-0.055-0.002-0.028,0.015,0.019c0.005,0.017,0.014,0.025-0.008-0.007   c-0.013-0.019-0.028-0.038-0.064-0.076l-0.012-0.012l-0.002-0.003c1.523,1.526-2.079-2.08-1.704-1.712l0.008-0.008l0.031-0.031   l0.125-0.124l0.249-0.248c5.3-5.281,10.486-10.423,16.765-16.871l10.565-9.475c-2.157,2.324-7.775,8.756-4.701,6.207   c-5.425,4.323-10.405,9.688-15.953,14.645c-0.393,0.679,1.849-1.355,2.869-2.199c-3.174,3.165-5.012,4.508-9.102,8.789   c0.315-0.088,5.019-4.518,1.644-1.009c0,0-0.377,0.334-0.943,0.837c-0.141,0.125-0.294,0.261-0.457,0.405l-0.061,0.054   l-0.031,0.027l-0.008,0.007l0.703,0.707l0.003,0.002l0.023,0.024l0.036,0.042c0.037,0.046,0.034,0.052,0.028,0.036   c-0.019-0.141-0.02,0.035-0.03,0.011c-0.003,0.007-0.002,0.003,0.012-0.017c0.022,0.002-0.021-0.052,0.078,0   c0.037,0.019,0.083,0.056,0.012-0.036l-0.062-0.088l-0.031-0.044l-0.008-0.011c-0.019-0.021,0.153,0.158,0.08,0.083l-0.001,0.001   l-0.003,0.003c-0.086,0.083-0.107,0.088-0.107,0.088c0.014,0.008,0.074-0.06,0.075,0.019c-0.001-0.069-0.08-0.038-0.077-0.057   l0.017,0.012c0.002,0.018,0.034-0.014,0.008,0.045c-0.012,0.027-0.026,0.053-0.042,0.079c0.002,0.008,0.085-0.058,0.125-0.084   l0.077-0.055l0.005-0.003c-0.071-0.108,0.625,0.941,0.331,0.496l0.002-0.002l0.007-0.009l0.015-0.018l0.03-0.037l0.126-0.15   c0.087-0.101,0.178-0.207,0.274-0.318c0.196-0.218,0.412-0.458,0.651-0.725c0.974-1.057,2.398-2.504,4.674-4.702   c-0.681,0.983-1.761,2.434-3.095,4.081c-0.337,0.409-0.687,0.832-1.046,1.268c-0.183,0.215-0.368,0.433-0.555,0.653l-0.284,0.331   l-0.144,0.166l-0.036,0.042l-0.018,0.021l-0.002,0.002c-1.86-2.195-0.517-0.607-0.933-1.097l-0.006,0.004l-0.011,0.008   l-0.091,0.065c-0.175-0.146-0.005-0.023-0.009-0.052c-0.024-0.001-0.065-0.017-0.039-0.008c0.015,0.01,0.073,0.005,0.028,0.01   c-0.055,0.009-0.079,0.035-0.021-0.007c0.062-0.05-0.026,0.022-0.033,0.023c0.006-0.004,0.042-0.016,0.058-0.017   c0.007,0.015,0.004-0.041,0.014,0.048l0.002,0.045c0,0.024,0,0.031-0.001-0.016l-0.003-0.179v-0.011v-0.005   c0.005-0.109-0.008,0.142-0.006,0.117h0h0.001h0h0l-0.007,0c-0.026,0.004-0.109-0.049-0.029,0.005   c0.014-0.001-0.046,0.102-0.048,0.114l0.133-0.095l0.066-0.047l0.004-0.003c-0.259-0.298,2.27,2.584,1.201,1.362l0.007-0.007   l0.014-0.014l0.028-0.029l0.44-0.458l0.877-0.903c0.589-0.595,1.178-1.189,1.782-1.798c2.424-2.429,5.111-5.08,8.887-9.136   c-0.857,0.982-1.013,1.313-2.913,3.268l11.554-11.175c-3.074,2.55,9.099-9.676,7.652-9.008   c-12.273,11.95-8.479,8.627-22.501,22.208c3.819-3.996,8.46-9.43,10.457-12.155c0.135-0.105,0.347-0.292,0.778-0.709   c1.724-2.495-0.53-0.448-1.163-1.163c-5.821,6.78-10.428,10.598-17.583,18.304c-1.028,1.767,4.782-3.841,8.38-7.63l-6.302,6.791   l1.119-1.458c0,0-1.046,1.031-2.616,2.577c-0.196,0.193-0.4,0.395-0.612,0.603l-0.087,0.086c-0.034,0.036-0.151,0.155-0.1,0.106   c0.049-0.053,0.032-0.038,0.014-0.017c-0.051,0.062-0.092,0.134-0.118,0.224c-0.056,0.184-0.026,0.412,0.082,0.573   c0.244,0.402,0.805,0.404,1.061,0.192c1.379-1.352,2.299-2.253,2.299-2.253c-0.782,0.792-1.422,1.467-1.966,2.061l-0.192,0.212   l-0.029,0.047l-0.058,0.087c-0.039,0.056-0.078,0.107-0.121,0.156c-0.172,0.194-0.413,0.361-0.747,0.401   c0.4,0.108,0.855,0.07,1.233-0.162c0.049-0.028,0.096-0.063,0.145-0.098l0.41-0.376l0.856-0.786   c0.576-0.525,1.158-1.055,1.749-1.594c-0.827,0.123-0.777-0.425,1.321-2.51c10.775-10.607,17.034-16.234,21.382-19.777   c0.402-0.418,0.855-0.89,1.22-1.27c-2.153,1.432,6.943-8.241,9.887-11.922c0.209,0.537,5.733-5.286,9.005-8.177   c1.212-2.068-1.567-0.472-5.669,2.931c-6.837,7.62-3.656,4.446-6.516,8.417l-11.226,11.966l2.25-2.934   c-5.938,5.637-11.047,11.647-11.066,10.778c2.762-3.354,7.991-8.224,10.729-11.556l-3.991,3.666   c6.317-7.191,3.882-3.042,11.756-11.524c-3.386,2.63,0.714-0.768,3.964-4.524c-3.075,2.548-14.292,14.507-12.476,11.407   c3.973-4.534,15.061-13.556,20.049-19.821l-0.202,0.348c4.192-4.109,6.925-6.984,8.971-9.25c0.507-0.57,0.976-1.098,1.417-1.595   c0.226-0.259,0.445-0.509,0.658-0.753c0.384-0.417,0.757-0.823,1.123-1.22c1.493-1.626,2.853-3.108,4.233-4.611   c2.946-2.761,6.277-6.105,9.78-9.684c3.549-3.643,7.202-7.392,10.559-10.838c0.009,1.157,0.016,2.277,0.023,3.365l-0.265,0.336   l0.111,13.864c-0.32-4.026-0.21-9.793-0.12-16.959c-2.409,2.344-5.082,4.959-7.97,7.881c0,0,0.204-0.03,0.407-0.061   c0.195-0.022,0.39-0.043,0.39-0.043c-4.626,4.214-8.812,8.507-12.433,12.413c-1.821,1.964-3.523,3.853-5.171,5.689   c-0.96,1.134-1.919,2.267-2.911,3.439c0.592-0.654,1.245-1.354,1.939-2.086c0.408-0.423,0.826-0.856,1.251-1.299   c0.633-0.644,1.278-1.3,1.932-1.966c2.638-2.658,5.417-5.458,8.116-8.178c5.421-5.448,10.5-10.565,13.756-14.12   c0.089,1.833,0.211,2.911,0.377,3.181l-0.494,10.213l0.178,4.169c-0.186,3.674-0.424,3.78-0.631,1.553   c-0.206-2.244-0.379-6.76-0.435-12.827c0.124-2.42,0.186-3.676,0.288-3.246l-0.051-1.187c-2.022,2.179-4.048,4.396-6.655,7.136   c-2.614,2.748-5.785,5.994-10.281,10.416l5.213-5.58c-3.077,3.084-6.083,6.099-8.929,8.952c-1.177,1.198-2.321,2.361-3.422,3.481   c-0.799,0.832-1.568,1.631-2.298,2.392c-2.908,3.054-5.15,5.534-6.271,6.996c2.071-2.024,4.136-4.042,6.191-6.051   c2.428-2.396,4.845-4.78,7.246-7.149c6.146-6.117,12.214-12.156,18.165-18.078c0.001,5.762,0.002,11.305,0.003,16.783   c0.554,2.664,0.987,6.193,1.411,9.594c0.109,0.868,0.215,1.71,0.316,2.514c0.055,0.414,0.108,0.818,0.161,1.212   c0.054,0.338,0.108,0.477,0.163,0.713c0.221,0.847,0.453,1.571,0.711,2.115c0.189,9.706,0.332,22.882-0.045,31.312l-0.203-0.774   c-0.105,4.113-0.051,7.903,0.066,11.064c-0.27,4.345-0.545-2.974-0.691,0.054l0.346,13.902c-0.467-0.857-0.469-12.556-0.502-18.11   c0.04,1.048,0.117,3.165,0.18,2.485c0.192-6.462-0.602-18.5,0.072-21.324c-0.117-3.148,0.498,6.396,0.533-4.263   c0.255-7.137-0.352-9.461-0.553-10.207c-0.266-0.116-0.363,11.201-0.682,7.274c0.033,5.555,0.375,7.767,0.119,14.871   c-0.031-5.505-0.568-12.982-0.157-15.915c-0.493-10.886-1.733-9.324-1.801-4.192c0.389-1.222,0.479,19.858,0.985,5.583   c0.5,6.413,0.504,18.127,0.816,26.515l-0.1-0.381l0.125,10.414c-0.138-1.466-0.256-4.615-0.519-4.718l0.708,14.423   c-0.476-8.119-0.331,5.033-0.541,8.728c0.404,1.545,0.701,7.179,0.931,1.773c0.294-6.077-0.219-3.538-0.25-9.063l0.639,7.825   l-0.063,0.671l0.521,4.709c-0.037,10.658-1.213-4.656-0.702,9.001l0.711-1.777c-0.104,15.812-0.905,36.117-0.577,47.289   c-0.404-3.082-1.054-4.44-1.44-0.203c0.123-4.818,0.097-14.498,0.03-21.408c0.125-1.33,0.841,8.633,0.687,16.139   c1.164-3.637-0.703-18.881,0.477-19.763c0.412-19.125-1.136-14.266-0.443-30.5c-0.527-0.224-0.258-4.615-0.722-5.468   c-0.86,4.805,0.029,21.701-0.271,32.235c-0.038-1.032-0.117-3.107-0.217-3.513c-0.154,7.531-0.037,10.642,0.158,15.902l0.063-0.663   c0.515,9.192-0.394,5.688-0.625,11.097c0.078,2.096-0.074,9.619,0.313,8.409l-0.5,9.796l0.588-0.472   c0.034,5.526-0.354,6.735,0.004,11.743l0.526,0.232l0.183-13.724c0.172,6.955,0.505,1.938,0.614,9.581   c-0.576-8.537-0.291,6.04-0.78,6.88l0.296,5.621l-0.14-1.438c-0.271,4.412,0.196,5.252,0.127,10.402   c0.294-6.073,0.663-10.05,0.29-17.788c0.295,5.634,0.623,16.805,0.641,19.547c0.221,5.916-0.18,10.046-0.24,15.579   c-0.211-10.62-1.596,3.721-1.218-17.563c0.101,0.394,0.078,2.116,0.016,2.783c0.672-2.838-0.042-12.758-0.299-17.373   c-0.388,1.188-0.484-3.637-0.698,4.544c0.248-2.684,0.864,6.893,0.546,14.676l-0.829-1.371l-0.098,11.333l-0.039-1.061   c-0.534,4.263,0.103,12.092-0.211,19.896c0.296,5.634,0.061,27.248,0.928,17.949c-0.519,7.004,0.142,13.151,0.253,20.794   l0.338-9.527c0.593,11.263,0.21,8.02,1.153,17.033c-0.227,0.911-0.412,2.92-0.651,1.09c-0.043,15.132-0.278,36.742,0.401,45.619   c-0.037,10.666-1.013,12.34-0.63,27.306c0.117,3.152,0.774-2.456,0.536,7.452c-0.061,0.667-0.614-9.54-0.548,1.495   c0.066,0.816,0.115,1.663,0.149,2.535c0.014,0.471,0.028,0.948,0.042,1.432c0.008,0.736,0.016,1.481,0.024,2.236   c0.02,3.025-0.001,6.197-0.036,9.426c-0.07,6.487-0.193,13.089-0.142,20.087c-1.955-1.926-3.896-3.796-5.838-5.607   c-6.352-6.676-16.966-17.168-14.474-15.39c6.384,6.495,14.749,14.826,19.782,19.718c-0.047-3.664-0.11-6.291-0.187-7.33   c0.152,1.198,0.226-1.013,0.291-2.29c0.065-1.262,0.121-1.603,0.238,3.628c0.095-4.978,0.124-8.416,0.116-10.949   c-0.007-2.54-0.05-4.193-0.097-5.763c-0.046-1.571-0.097-3.059-0.12-5.289c-0.002-0.983-0.005-2.136-0.009-3.548   c0.016-1.011,0.035-2.208,0.057-3.657c-0.101-0.4-0.241,1.09-0.333,2.991c-0.019,0.477-0.039,0.979-0.059,1.483   c-0.011,0.773-0.022,1.551-0.032,2.297c-0.011,1.489,0,2.853,0.045,3.833c-0.172-0.069-0.279-2.282-0.355-5.25   c-0.051-2.068-0.116-4.717-0.173-7.031c-0.1-4.434-0.218-7.586-0.631-2.433c-0.015,3.098,0.064,5.65,0.179,7.905   c0.146,3.198,0.273,5.978,0.397,8.683c0.13,2.886,0.24,5.787,0.272,8.914c0.032,3.117-0.015,6.479-0.196,10.055   c-0.209-3.64-0.226-7.64-0.28-11.922c-0.054-4.252-0.146-8.795-0.508-12.669l-0.277,11.854l0.498,9.676l-0.102-0.743   c-0.04,1.544-0.077,2.962-0.11,4.237c-3.081-3.195-5.278-5.375-7.141-7.141c-1.858-1.761-3.369-3.093-4.961-4.479   c-1.592-1.386-3.265-2.823-5.44-4.787c-0.986-0.898-2.074-1.89-3.31-3.017c-0.933-0.845-1.968-1.805-3.135-2.916   c5.373,6.051-2.167-0.476,1.923,4.028c-6.655-6.531-11.432-11.438-10.989-11.969c12.732,11.937,1.216,0.184,13.105,11.101   c-1.697-2.046,3.429,2.002-3.313-4.848c-8.004-7.308,1.884,2.697-5.913-4.778c-0.407-0.494-0.832-1.007-0.494-0.812   c-3.766-3.259-4.006-4.189-8.537-8.159l1.105,0.909c-4.944-5.536-6.067-5.396-10.256-10.229c1.443,2.166-3.325-2.732-6.348-5.304   c4.435,4.709,6.391,7.703,15.441,16.696c1.375,0.804,0.875-0.015,4.719,3.553l-5.899-5.829c1.313,1.218,2.35,2.107,3.567,3.21   l5.484,5.781c-7.346-6.937-4.377-3.355-7.709-6.093c-6.41-6.659-5.471-5.313-9.487-9.517c0.833-0.007-11.883-13.318-19.138-21.112   c1.164,1.174,2.665,2.689,3.475,3.508c5.731,5.2-3.411-4.111-3.498-4.429l-4.193-3.773c0.779,0.721,1.914,1.66,0.274-0.099   c-2.735-2.657-4.128-3.804-5.521-4.948l-0.131-0.107l-0.033-0.026l-0.016-0.014l-0.008-0.007l-0.002-0.002   c-0.015-0.015,0.125,0.122,0.064,0.063l-0.004-0.003l-0.066-0.053l-0.131-0.103l0,0.028c-0.013,0.018-0.103-0.027-0.152-0.029   c-0.116-0.025-0.236-0.032-0.364-0.028c-0.255,0.012-0.559,0.081-0.809,0.305c-0.155-0.09-0.036-0.458,0.221-0.699   c0.115-0.123,0.23-0.214,0.2-0.288c-0.025-0.068-0.22-0.152-0.653-0.023c-0.161-0.009-0.458,0.034-0.778,0.206   c-0.382,0.242-0.764,0.604-0.941,1.306c-0.015,0.077-0.03,0.156-0.045,0.238c-0.004,0.256-0.017,0.181-0.013,0.316   c0.002,0.197,0.03,0.404,0.091,0.612c0.058,0.21,0.151,0.418,0.279,0.62c0.064,0.101,0.136,0.2,0.22,0.295   c0.073,0.088,0.301,0.317,0.449,0.474c1.344,1.394,2.919,2.96,4.759,4.696c0.595,0.419,2.499,2.223,4.687,4.335   c-0.312-0.286-0.695-0.652-0.847-0.771l4.499,5.003c-4.442-3.653-8-8.373-12.465-12.045l-0.721,0.029   c-0.199-0.197-0.402-0.399-0.608-0.604c-0.208-0.206-0.437-0.424-0.562-0.564c-0.296-0.326-0.54-0.712-0.707-1.141   c-0.341-0.854-0.353-1.866-0.032-2.732c0.306-0.867,0.947-1.586,1.641-2.024c0.694-0.444,1.439-0.612,2.021-0.659   c-1.44-0.06-2.532,0.558-3.225,1.313c-0.679,0.74-1.021,1.626-1.072,2.521c-0.046,0.904,0.176,1.844,0.825,2.708   c0.174,0.229,0.326,0.386,0.599,0.645c0.257,0.248,0.526,0.507,0.808,0.778c0.563,0.545,1.179,1.142,1.865,1.805   c0.259,0.497-0.605-0.162-1.606-1.01c-0.494-0.431-1.031-0.899-1.481-1.292c-0.433-0.371-0.688-0.721-0.792-0.871   c-0.017,0.037,0.856,0.644,0.867,0.609c-1.322-1.492-1.402-3.444-0.741-4.861c0.16-0.354,0.386-0.703,0.615-0.98   c0.272-0.324,0.544-0.573,0.865-0.804c0.633-0.451,1.394-0.731,2.203-0.796c0.807-0.064,1.665,0.092,2.446,0.511   c0.397,0.213,0.741,0.477,1.11,0.832c0.374,0.349,0.758,0.706,1.153,1.074c1.575,1.479,3.305,3.151,5.291,5.172   c1.195,1.225,0.429,0.515,0.088,0.316c6.851,6.124,12.718,12.987,19.503,18.814l-2.254-1.859   c4.474,4.113,13.222,12.156,21.963,20.192l0.213-0.078c-0.844-1.02,2.3,2.135,3.931,3.884l-0.011-0.007   c2.19,2.016,4.338,3.993,6.369,5.861c0.921,0.845,1.817,1.664,2.677,2.452c0.724,0.654,1.418,1.282,2.076,1.877   c-0.797-0.978-1.695-2.027-2.877-3.25c-1.486-1.144-9.055-8.993-8.387-7.547c-3.327-3.797-9.402-9.198-11.87-11.961   c4.516,5.016-3.686-2.951-4.735-3.571c-1.356-1.849-7.081-7.044-6.126-6.75c-0.854-1.026,2.121,2.56,4.346,4.389   c5.299,4.683-8.868-9.41-2.356-3.484c-8.141-7.677-18.461-18.198-26.923-26.052l4.432,4.701c-0.902-0.911-2.111-2.134-3.429-3.466   c-0.661-0.663-1.35-1.354-2.04-2.046c-0.831-0.854-1.972-1.489-3.128-1.735c-1.162-0.258-2.343-0.167-3.352,0.171   c-1.013,0.334-1.846,0.9-2.449,1.49c-1.218,1.199-1.565,2.408-1.707,2.651c0.167-0.59,0.423-1.169,0.77-1.708   c0.18-0.273,0.353-0.513,0.604-0.796c0.123-0.131,0.131-0.15,0.314-0.329c0.116-0.116,0.24-0.226,0.367-0.333   c1.014-0.86,2.36-1.415,3.782-1.495c1.419-0.083,2.922,0.318,4.158,1.206c0.152,0.112,0.3,0.222,0.466,0.368   c0.185,0.16,0.208,0.185,0.381,0.352l0.637,0.62c0.428,0.414,0.862,0.833,1.3,1.256c0.135-0.051-0.315-0.595-1.069-1.39   c-0.409-0.396-0.705-0.826-1.602-1.495c-0.775-0.554-1.739-0.976-2.755-1.143c-2.047-0.384-4.179,0.365-5.414,1.402   c-0.157,0.127-0.306,0.253-0.44,0.382l-0.208,0.202l-0.136,0.14c-0.27,0.295-0.446,0.514-0.6,0.725   c-0.305,0.416-0.478,0.708-0.556,0.773c0,0-0.137,0.275-0.294,0.785c-0.154,0.507-0.316,1.257-0.292,2.155   c0.016,0.87,0.239,1.948,0.748,2.913c0.256,0.487,0.579,0.958,0.963,1.38c0.427,0.459,0.74,0.694,1.071,0.998   c2.657,2.349,5.314,4.697,5.314,4.697l-4.364-4.406c2.988,2.536,11.883,11.978,18.625,18.825   c-4.409-3.388-10.265-10.238-17.619-17.184c-5.387-5,2.714,3.7-2.323-1.093c1.156,1.393,4.376,4.586,6.087,6.04l1.846,2.031   c-1.212-0.98-2.729-2.336-4.431-3.915c-0.846-0.795-1.744-1.639-2.677-2.516c-0.463-0.441-0.936-0.892-1.415-1.348l-0.729-0.698   c-0.379-0.371-0.726-0.786-1.027-1.235c-1.221-1.799-1.658-4.135-1.145-6.298c0.505-2.183,1.94-4.089,3.859-5.192   c1.921-1.122,4.241-1.383,6.289-0.83c1.027,0.271,1.988,0.74,2.815,1.347c0.47,0.344,0.839,0.7,1.016,0.855   c0.223,0.198,0.443,0.394,0.659,0.587c-0.315-0.259-0.61-0.501-0.852-0.699c-0.275-0.239-0.203-0.151-0.463-0.358   c-0.19-0.144-0.334-0.235-0.423-0.278c0.768,0.643,0.901,0.875,1.239,1.212l0.92,0.975l1.854,1.938   c1.253,1.277,2.506,2.556,3.754,3.829c2.518,2.528,5.058,5.003,7.575,7.397c-2.452-2.744-3.579-3.673-5.118-5.104   c-0.07-0.299,4.617,4.288,6.498,5.916c-4.434-4.705-0.579-1.126-3.393-4.094c3.086,2.865,5.465,5.308,9.042,8.983   c1.705,2.056-1.797-1.314-1.643-0.701c3.873,3.597,5.03,5.854,10.761,11.055c-7.173-7.367,2.416,1.415,5.074,3.766l-1.202-1.235   c2.574,2.036,4.542,3.981,5.889,5.821c-3.086-2.865-5.889-5.821-5.316-4.7c1.977,1.953,3.948,3.901,6.257,6.045l-2.222-1.826   l9.826,9.711c1.788,1.305,4.713,3.547,6.422,4.544c0.531,0.641,1.145,1.313,1.802,1.996c0.24,0.244,0.484,0.493,0.731,0.744   l0.422,0.395c0.572,0.515,1.125,0.935,1.536,1.262l-0.408-0.207c0.9,1.13,2.634,2.858,3.817,3.918   c-0.069-1.646-0.192-2.961-0.326-3.338c0.109-0.479,0.447,1.681,0.79,4.458c-1.189-0.596-2.955-1.754,0.884,2.134   c0.007-0.935-0.002-2.312-0.03-4.054c-0.001-3.3-0.243-4.48-0.525-5.185c-0.141-0.359-0.293-0.621-0.43-0.969   c-0.068-0.173-0.133-0.366-0.192-0.598c-0.013-0.057-0.027-0.117-0.042-0.181c-0.014-0.066-0.027-0.096-0.04-0.305   c-0.021-0.337-0.044-0.711-0.07-1.128c0,0,0.099,0.377,0.162-0.286c0.07-5.12-0.297-5.634-0.452-9.842   c-0.146,3.069-0.153,7.518-0.014,8.951c-0.403-1.541,0.036-10.662-0.282-14.585c0.622,5.091,0.237-9.896,0.557-5.944   c0.4-10.182-0.092-21.067-0.551-26.415c0.781-6.91-0.104-12.116,0.258-23.33c-0.023,1.724,0.094,4.851,0.01,7.262   c0.495,6.392,0.26-11.619,0.712-1.781c-0.078-2.104-0.263-0.149-0.185,2.009c0.056,3.773,0.273,7.328,0.499,6.379l0.438-9.138   l0.12,3.189l0.606-13.868c-0.1-0.377-0.224,0.924-0.285,1.591c0.267-16.085-0.071-34.477,0.01-48.568   c-1.397-2.647-0.599-34.692-1.457-46.079c0.401,3.053,1.108,4.722,1.399,2.833c0.059,2.539,0.623,7.738,0.506,13.496   c-0.225,0.919-0.479,8.031-0.735,3.454c0.159,15.915,0.613-2.153,1.133,2.544c-0.136-17.634-0.954-27.978-1.283-39.107l0.165-0.282   l-0.313-8.405c-0.093,6.868-0.885,6.528-0.607-2.324l0.039,1.077c0.333-5.049-0.059-15.554-0.007-23.441l-0.458-5.348   c0.052-7.899,0.905-8.239,1.416-10.807c0.06-12.381-0.639-19.531-1.055-28.325c0.372-3.977,0.46-22.521,0.911-12.696   c-0.328-11.168-2.32-8.915-1.216-28.068l0.359,4.971c-0.038-9.157-0.234-20.264-0.375-30.137c-0.017-1.234-0.034-2.449-0.05-3.638   c-0.007-0.418-0.015-0.832-0.022-1.241c-0.007-0.227-0.013-0.45-0.02-0.671c-0.018-0.865-0.035-1.682-0.05-2.432   c-0.015-1.491,0.011-2.74,0.105-3.791c0.363-0.024,0.626-0.866,0.844-2.676c-1.729,0.943-7.719,6.554-11.573,9.125   c0.845-0.438-3.952,4.496-4.552,5.313c-1.171,0.961-3.047,2.635-4.747,4.703c5.229-4.87-2.623,4.478,6.671-5.537   c-4.273,5.498-10.089,12.271-20.822,22.943l-0.212-0.534l8.582-8.354c-1.13,0.581,3.249-3.757,4.909-5.671   c-15.962,15.543,1.189-2.935-14.866,13.218c-1.314,1.797-0.406,0.69-4.496,4.971c1.956-1.981,2.054-2.592-1.124,0.575l-2.749,3.344   c-6.245,5.002,8.904-9.713,3.669-5.352c5.926-6.511,16.54-17.438,14.057-15.907c-10.328,9.982-8.245,10.027-19.079,20.429   l-1.333,0.928c-3.596,3.873-3.872,4.804-5.718,7.047c-0.3,0.069-1.335,0.932-3.768,3.297c-1.47,1.685-2.814,3.228-4.091,4.691   c-0.644,0.726-1.271,1.432-1.887,2.126c-0.309,0.347-0.615,0.69-0.919,1.032l-0.228,0.256c-0.078,0.086-0.134,0.155-0.281,0.303   c-0.25,0.26-0.522,0.499-0.807,0.724c-2.294,1.805-5.596,2.26-8.431,0.96c-0.721-0.332-1.346-0.715-2.015-1.289   c-0.528-0.439-1.131-1.099-1.573-1.775c-0.918-1.378-1.463-3.107-1.445-4.906c-0.116,2.407,0.79,4.632,2.156,6.175   c0.187,0.213,0.306,0.337,0.567,0.593l0.16,0.147l0.342,0.295c0.409,0.332,0.798,0.594,1.222,0.835   c0.837,0.474,1.72,0.788,2.591,0.96c1.748,0.346,3.441,0.131,4.878-0.434c0.721-0.28,1.376-0.653,1.96-1.077   c0.29-0.215,0.564-0.44,0.816-0.678c0.172-0.168,0.341-0.333,0.507-0.497c2.227-2.206,3.944-3.829,5.678-5.467   c3.468-3.275,7.003-6.607,14.819-14.772c-2.35,2.659-13.487,14.023-13.663,15.229l-0.224-0.523   c-1.253,1.346-2.505,2.691-3.777,4.058c-0.64,0.68-1.285,1.365-1.937,2.058l-0.53,0.555c-0.323,0.328-0.678,0.631-1.05,0.915   c-0.75,0.563-1.593,1.022-2.491,1.349c-1.795,0.656-3.806,0.773-5.728,0.281c-0.959-0.244-1.897-0.642-2.756-1.183   c-0.217-0.132-0.424-0.28-0.629-0.43l-0.302-0.233l-0.354-0.302c-0.275-0.243-0.682-0.639-1.002-1.027   c-0.665-0.788-1.214-1.701-1.603-2.686c-0.196-0.492-0.348-1.003-0.46-1.524c-0.058-0.26-0.101-0.524-0.137-0.79l-0.045-0.407   l-0.031-0.5l-0.005-0.232l0.005-0.47c0.009-0.271,0.029-0.542,0.063-0.812c0.065-0.54,0.173-1.079,0.331-1.608   c0.315-1.057,0.815-2.082,1.489-2.991c0,0-0.416,0.56-0.841,1.503c-0.43,0.938-0.804,2.277-0.839,3.633   c-0.008,0.168-0.004,0.338-0.003,0.506l0.004,0.21l0.005,0.065l0.01,0.13c0.017,0.197,0.034,0.393,0.051,0.586   c0.024,0.161,0.048,0.319,0.071,0.475c0.109,0.622,0.273,1.19,0.449,1.662c0.354,0.946,0.719,1.515,0.719,1.515   c-0.362-0.631-0.647-1.3-0.847-1.983c-0.1-0.342-0.184-0.687-0.243-1.034c-0.061-0.345-0.103-0.673-0.128-1.138   c-0.014-0.182-0.021-0.629-0.002-0.946c0.018-0.345,0.051-0.688,0.107-1.026c0.108-0.677,0.29-1.337,0.538-1.966   s0.563-1.227,0.933-1.777c0.191-0.281,0.372-0.526,0.605-0.805l0.366-0.41l0.253-0.26c0.487-0.475,0.965-0.941,1.436-1.401   c1.909-1.811,3.695-3.505,5.423-5.145c3.463-3.27,6.652-6.357,9.754-10.08c-2.444,2.377-4.389,4.345-5.82,5.89   c4.286-4.618,9.909-10.167,14.811-14.942l9.396-10.627c0.097,0.273,6.453-6.061,3.687-2.704   c7.492-6.924,10.334-10.878,14.407-15.136c7.777-6.985-6.217,6.571-6.426,7.81c10.342-9.997,20.965-20.932,26.367-27.006   c-2.149,1.999-3.221,2.942-3.206,2.746c0.44-0.203,4.458-4.291,6.815-6.627l2.414-2.672c0.411-0.35,0.784-0.694,1.142-0.973   c0.371-0.236,0.728-0.43,1.064-0.585c0.67-0.317,1.25-0.493,1.706-0.604c0.916-0.21,1.331-0.186,1.268-0.127   c-0.058,0.074-0.594,0.192-1.478,0.55c-0.44,0.181-0.963,0.432-1.533,0.783c-0.283,0.181-0.578,0.377-0.874,0.621   c-0.283,0.281-0.583,0.579-0.9,0.893c0.463-0.394,0.894-0.89,1.411-1.182c0.507-0.329,1.058-0.606,1.635-0.84   c1.157-0.466,2.439-0.699,3.735-0.698c1.296,0.021,2.607,0.305,3.798,0.855c1.209,0.498,2.199,1.471,3.27,2.315   c0.607,0.6,1.213,1.197,1.815,1.792c0.372,0.379,0.742,0.757,1.108,1.131c0.725,0.758,1.416,1.523,2.058,2.297   c-0.732-0.681-1.486-1.382-2.255-2.095c-0.379-0.362-0.762-0.727-1.146-1.094c-0.59-0.577-1.183-1.157-1.777-1.738   c-1.068-0.859-2.048-1.853-3.265-2.371c-1.198-0.566-2.521-0.874-3.83-0.889c-1.308-0.005-2.601,0.243-3.754,0.731   c-0.575,0.247-1.122,0.54-1.619,0.884c-0.489,0.367-0.933,0.836-1.39,1.238c-0.873,0.81-1.714,1.59-2.515,2.333   c-0.52,0.525-1.013,1.024-1.474,1.491c-0.918,0.938-1.7,1.756-2.29,2.417c0.762-0.783,1.479-1.521,2.157-2.217   c0.342-0.346,0.673-0.682,0.996-1.009c0.162-0.163,0.322-0.323,0.479-0.481c0.169-0.167,0.272-0.281,0.555-0.537   c1.984-1.73,3.544-3.633,5.571-4.193c1.972-0.673,3.99-0.626,5.72-0.049c0.868,0.289,1.671,0.701,2.386,1.219   c0.699,0.546,1.35,1.207,2.022,1.803c1.098,1.183,2.216,2.389,3.429,3.697c1.021,1.103,2.129,2.284,3.397,3.603   c2.538,2.639,5.716,5.833,10.104,10.06c0.086,0.318-2.925-2.242,0.241,0.931c7.432,7.254,2.418,1.419,4.98,3.443   c-5.804-5.503-8.286-8.281-11.261-11.867l1.705,1.312c0.126,0.331,3.671,3.886,4.618,5.031l1.314,0.513   c-0.865,0.021,4.476,6.039,9.105,10.337c-4.188-4.833-2.987-3.597-3.709-5.33c6.756,5.798,6.611,7.553,14.154,14.082   c-0.67-0.385-6.918-6.421-1.72-1.004c4.374,4.413,4.134,3.481,7.19,6.318c-3.688-2.949-3.11-1.822-7.146-4.981   c-7.853-7.759-3.144-3.153-10.935-10.623l6.146,6.771c-6.674-6.554-5.232-4.386-5.919-4.79c10.919,11.67,9.073,7.95,16.243,15.314   c3.757,3.25-6.754-6.861-1.008-1.646c6.741,6.849,1.79,1.308,9.578,8.775l-1.447-1.107c2.112,2.551,4.688,4.586,7.423,7.246   c3.079,2.855-2.075-4.644,10.149,7.531c-0.7-0.495-0.986-0.648-1.028-0.606l-15.006-8.796c6.161,6.2,12.791,12.872,19.664,19.79   c1.711,1.737,3.437,3.489,5.174,5.253l1.325,1.354c0.541,0.575,0.977,1.257,1.27,1.994c0.589,1.476,0.596,3.162,0.017,4.639   c-0.295,0.747-0.699,1.403-1.271,2.019c-0.5,0.539-1.174,1.044-1.88,1.376c-1.427,0.687-3.105,0.797-4.604,0.313   c-0.749-0.24-1.453-0.624-2.057-1.125c-0.616-0.536-0.974-0.967-1.435-1.422l-2.646-2.72c-1.378-1.987,1.288,0.435,4.256,3.228   c0.809,0.74,1.874,1.221,2.912,1.349c1.041,0.139,2.03-0.062,2.774-0.391c0.749-0.331,1.256-0.772,1.531-1.074   c0.279-0.312,0.342-0.458,0.207-0.38c0,0,0.439-0.4,0.846-1.181c0.413-0.769,0.702-1.964,0.501-3.14   c-0.17-1.179-0.834-2.244-1.472-2.856c-0.601-0.624-1.001-1.04-1.001-1.04c0.078,0.014,0.352,0.236,0.76,0.603   c0.39,0.349,1.024,0.893,1.458,1.713c0.445,0.806,0.71,1.856,0.634,2.924c-0.065,1.068-0.479,2.131-1.104,2.94   c-0.618,0.818-1.418,1.384-2.128,1.709c-0.711,0.33-1.32,0.443-1.651,0.513c-0.333,0.06-0.397,0.108-0.069,0.141   c0.32,0.016,1.074,0.055,2.233-0.425c2.186-1.135,3.33-3.484,3.188-5.586c-0.056-1.055-0.391-2.061-0.935-2.897   c-0.258-0.413-0.617-0.813-0.922-1.108c-0.293-0.291-0.583-0.579-0.869-0.863c-2.286-2.278-4.366-4.351-6.428-6.406   c-4.132-4.101-8.232-8.084-13.966-13.288c2.768,4.015,14.561,14.279,21.108,21.901c-2.852-3.064-5.51-5.493-8.024-7.863   c1.651,1.69,3.331,3.409,5.039,5.158c0.842,0.869,1.745,1.768,2.555,2.633c0.743,0.862,1.135,2.017,1.075,3.162   c-0.052,1.146-0.56,2.263-1.402,3.052c-0.833,0.799-1.986,1.248-3.146,1.221c-1.161-0.019-2.297-0.509-3.107-1.361   c-0.925-0.948-1.856-1.902-2.795-2.864l-1.854-1.561c1.264,1.298,2.43,2.496,3.475,3.57c0.525,0.522,1.012,1.084,1.469,1.456   c0.479,0.382,0.996,0.641,1.494,0.799c1.005,0.314,1.897,0.239,2.511,0.094c0.62-0.147,0.987-0.35,1.125-0.413   c-1.002,0.548-2.173,0.703-3.235,0.493c-1.08-0.207-1.99-0.771-2.714-1.534c-1.53-1.468-2.948-2.785-4.184-3.887   c-2.471-2.205-4.212-3.554-4.66-3.558l1.191,1.223l-2.594-2.315C319.672,127.793,318.108,126.171,316.551,124.558z    M302.941,417.463c0.37-0.455,0.646-0.83,0.823-1.133C303.58,416.644,303.901,416.408,302.941,417.463z M230.544,75.829   c4.571-4.489,9.162-8.996,13.707-13.459c2.274-2.23,4.537-4.45,6.78-6.651l1.412-1.383c0.46-0.435,0.876-0.924,1.426-1.244   c1.082-0.649,2.464-0.762,3.617-0.286c-1.027-0.506-2.24-0.532-3.263-0.149c-0.514,0.191-0.974,0.492-1.365,0.854   c-0.409,0.357-0.812,0.708-1.207,1.052c-1.824,1.609-3.505,3.092-4.979,4.393c-3.021,2.649-5.22,4.519-6.081,5.105   c-0.861,0.586-0.383-0.109,1.949-2.589c1.167-1.24,2.796-2.926,4.955-5.121c1.113-1.118,2.358-2.37,3.744-3.762   c0.73-0.713,1.444-1.553,2.497-1.987c1.02-0.453,2.246-0.633,3.449-0.363c0,0,0.639,0.109,1.225,0.376   c0.593,0.253,1.104,0.648,1.104,0.648c-0.973-0.85-2.524-1.5-4.243-1.276c-0.851,0.097-1.727,0.398-2.497,0.924   c-0.764,0.526-1.409,1.29-2.146,1.968c-0.682,0.674-1.382,1.365-2.093,2.068c-0.676,0.68-1.364,1.371-2.057,2.067   c-1.378,1.4-2.779,2.823-4.158,4.224c-2.076,2.421-6.464,7.54-10.317,12.033c-1.91,2.261-3.686,4.365-4.977,5.893   c-1.282,1.536-2.069,2.504-2.004,2.49c1.839-1.348,3.893-3.939,6.865-6.761L230.544,75.829z M222.631,80.797   c-5.233,5.037-3.869,4.063-4.491,5.035c1.785-1.83,3.567-3.656,5.329-5.462C222.742,81.009,222.344,81.283,222.631,80.797z    M218.623,85.7c0.581-0.573,1.082-1.057,1.363-1.291L218.623,85.7z M320.089,112.855c-0.232-0.224-0.316-0.304-0.538-0.516   c1.2,1.226,2.402,2.455,3.656,3.737C322.743,115.555,321.827,114.596,320.089,112.855z M310.098,102.004l-1.54-0.897   c1.119,1.143,2.261,2.309,3.429,3.502C311.742,104.073,311.462,103.539,310.098,102.004z M277.657,67.45   c-2.497-1.727-9.588-8.783-10.467-8.771c-0.565-0.336,0.88,1.195,2.513,2.901c1.851,1.875,3.827,3.876,5.923,5.998   c0.139,0.008,0.617,0.367,1.376,1.009c-2.027-2.138-3.309-3.64-2.191-3.07c4.759,5.95,5.222,4.374,10.857,10.314   C287.824,77.36,279.538,69.079,277.657,67.45z M250.636,437.399c-0.055,0.131-0.196,0.661-0.372,1.347l-0.311-5.627   c0.068-4.394,0.329-8.273,0.475-13.006c0.146-4.503,0.178-8.877-0.211-13.506c0.195-4.333,0.608-6.653,0.948-8.869   c-0.025,2.121-0.058,4.105-0.11,5.758c0.569,12.978,0.269,16.361-0.076,19.121c-0.172,1.393-0.356,2.613-0.447,4.625   C250.441,429.299,250.441,432.097,250.636,437.399z M251.745,319.747c0.039,1.061,0.142,1.441,0.142,1.441   c-1.154-22.981-1.489-41.903-1.444-54.293c-0.458,2.402-0.813,13.517-1.002,18.794l-0.521-4.677l0.41-2.921l-0.474-8.118   c-0.351,2.27-0.278,8.827-0.547,13.209c0.1,0.382,0.708,14.416,1.029,18.339l0.36-11.214c-0.146,3.028-0.025,17.903,0.108,23.802   c0.262,0.116,0.665-10.049,0.097-11.329c0.388-1.21,0.392,10.509,0.808,3.099c0.414,8.781,0.068,22.754-0.124,29.236l-0.652,1.098   c-0.253,7.112,0.786,4.805,0.409,13.255c-0.127-10.389-0.715,1.757-0.764-6.507c-0.246,2.639-0.689,0.054-0.641,8.334   c0.863,6.893-0.541,8.728,0.221,15.243c-0.27,4.354-0.52-4.685-0.635,3.882c0.453,9.825,0.778,9.258,1.407,9.867   c0.176-9.188-0.817-10.323-0.664-17.837l1.076,14.945c0.152-2.755,0.168-4.793,0.125-6.503c0.063,3.003,0.222,5.555,0.441,7.737   c0.115,1.243,0.221,2.391,0.319,3.45c0.006-8.471,0.021-15.993,0.289-17.322l0.305,1.168c0.28-2.999,0.061-7.888-0.163-10.141   c-0.033-7.585-0.458-15.161-0.063-16.817l0.279,2.879C251.787,332.517,251.749,331.478,251.745,319.747z M211.995,104.74   c2.392-1.603,4.864-3.331,9.052-7.007c2.094-1.838,4.616-4.163,7.772-7.202c1.578-1.52,3.314-3.218,5.234-5.123   c1.856-1.864,3.901-3.919,6.163-6.191l-1.344,1.453c2.01-1.791,3.839-3.562,5.723-5.476c1.878-1.908,3.811-3.959,5.882-6.165   c0.242,6.406,0.559,14.249,0.124,23.268c-0.107-1.961-0.187-3.406-0.252-4.605c-0.071-1.124-0.135-1.962-0.217-2.813   c-0.164-1.651-0.395-3.456-0.876-6.251l0.316,6.513c-0.304-0.824-0.377,0.426-0.378,2.419c0.016,2.579,0.038,6.222,0.056,9.31   l-0.723-5.451c0.052-0.927,0.096-2.223,0.129-3.641c0.022-1.044,0.047-2.177,0.069-3.219c0.024-2.063,0.002-3.739-0.081-3.538   c0.026,0.45,0.129-0.402,0.251-2.083c0.122-1.675,0.261-4.218,0.36-6.957c-1.84,1.686-3.983,3.747-5.615,5.485   c0.263,0.154,3.665-3.183,5.203-4.49c-0.109,1.95-0.269,2.776-0.588,1.492c0.168,1.841,0.129,3.27,0.071,4.634   c-0.059,1.393-0.138,2.733-0.052,4.99c-0.168-2.115-0.335-2.137-0.504-2.081c-0.17,0.081-0.342,0.235-0.521-0.872l0.167,6.202   c-0.082,0.081-0.172-2.232-0.318-3.68c-0.072-0.731-0.159-1.249-0.265-1.243c-0.106,0-0.231,0.533-0.382,1.723   c0.064,0.45,0.092,1.176,0.106,1.993c0.007,1.254,0.016,2.627,0.023,3.905c0.018,3.662,0.069,6.778,0.333,6.888l-0.162,0.282   c-0.114,8.579,0.747,3.773,0.446,14.307c0.265,0.125,0.449-1.885,0.394-5.658c-0.118-3.189-0.48-3.678-0.554-10.248   c0.413-2.945-0.051,7.924,0.646,3.364c0.174-1.133,0.099-5.469,0.078-8.921c0-0.863,0-1.67,0-2.359   c0.006-0.519,0.021-0.791,0.049-1.055c0.055-0.476,0.162-0.564,0.357,0.187l-0.113,8.172c0.528,0.219,0.498,6.42,0.924,6.247   c0.194,5.236-0.4,10.177,0.059,15.525c0.341,2.22,0.976-1.657,0.7,7.191c-0.781,6.914-0.629,27.285-0.518,34.916l0.337,6.677   c0.324-0.567-0.044-12.758,0.377-8.471l0.127,10.414l-0.203-0.804c-0.045,3.45,0.173,6.979,0.289,10.128   c-0.38-3.244-0.228-10.75-0.777-9.258c-0.108,4.888-0.313,5.634-0.207,10.132c-0.039-0.982-0.093-1.827-0.17-1.703   c-0.238,9.896,0.615,9.556,0.794,12.038c0.716,9.95,0.664-10.028,1.23-8.757l0.303,29.05c-0.179-2.481-0.356-4.979-0.582-4.043   c-0.254,7.125-0.427,0.162-0.4,10.166c0.752-0.712,0.469,12.597,0.903,19.664c-0.308,3.301-0.37,3.98-0.379-3.239   c-0.488,0.828-0.301,10.521-0.345,13.968c0.121,1.997,0.192,5.401,0.301,7.56c0.243-2.891,0.549-1.657,0.757,4.603l0.103,0.364   c0.134-10.261,0.667-26.208,0.167-32.642l0.242,1.818c0.422-11.876-0.877-25.844,0.045-31.32c0.365,0.505,0.084-2.386,0.611-2.179   l-0.412-8.745l0.239,1.819l-0.119-14.875l0.099,0.393c-0.492-7.07-0.877-12.608-1.186-17.033c-0.23-0.017-0.301,0.443-0.47-1.914   c-0.114-2.365-0.131-4.159-0.101-5.758c-0.001-0.012-0.001-0.012-0.003-0.012h0.003c0.067-3.649,0.397-6.081,0.532-10.575   l0.057,13.831c0.391,1.126,0.796-0.05,1.069-6.827c0.015,2.771,0.319,3.931,0.364,0.501c-0.102-0.377-0.25-9.063-0.561-5.754   c-0.071-6.57,0.149-15.172,0.295-24.626c0.073-4.727,0.127-9.667,0.116-14.671c-0.005-2.502-0.026-5.021-0.07-7.538   c-0.067-2.733-0.134-5.465-0.201-8.175c0.056,2.07,0.106,3.443,0.151,4.27c0.045,0.764,0.085,0.944,0.122,0.881   c0.018-0.039,0.035-0.155,0.052-0.328c0.016-0.166,0.031-0.396,0.046-0.74c0.022-0.654,0.051-1.489,0.079-2.309   c0.024-0.831,0.048-1.646,0.065-2.248c0.02-0.606,0.039-1.004,0.057-0.989c0.009,0.007,0.019,0.118,0.027,0.356   c0.006,0.242,0.015,0.61,0.027,1.129c0.012,1.023,0.03,2.642,0.057,5.051c0.039-0.604,0.07-1.542,0.095-2.261   c0.021-0.758,0.04-1.463,0.057-2.121c0.026-1.321,0.031-2.459,0.019-3.458c-0.024-2-0.114-3.437-0.221-4.794   c-0.214-2.744-0.499-5.072-0.47-11.511c-0.118,0.117-0.261,0.257-0.406,0.401c-0.136,0.064,0.055-0.165,0.502-0.633   c0.052,1.774-0.021,7.5,0.321,9.496c0.039-3.648,0.042-7.108,0.019-10.316c-3.251,3.294-6.344,6.497-9.271,9.562   c-2.804,2.957-5.54,5.843-8.296,8.749c-4.562,4.865-9.215,9.771-14.719,15.162l-0.896,0.206   C217.417,99.119,214.76,101.874,211.995,104.74z M186.953,130.639c-1.219,1.259-2.447,2.526-3.685,3.803   c-0.619,0.639-1.24,1.28-1.863,1.923l-0.937,0.967c-0.322,0.323-0.621,0.665-0.908,0.897c0.239-0.177,0.441-0.392,0.719-0.657   c0,0-0.112,0.121-0.308,0.332c-0.176,0.191-0.43,0.444-0.794,0.688c-0.705,0.502-1.891,0.895-3.091,0.725   c-1.211-0.146-2.272-0.831-2.879-1.553c-0.61-0.705-0.809-1.315-0.809-1.316c0.472,1.479,1.629,2.517,2.67,2.994   c1.056,0.495,1.966,0.518,2.354,0.574c0.392,0.032,0.312,0.19-0.535,0.31c-0.421,0.043-1.046,0.051-1.846-0.177   c-0.398-0.114-0.835-0.297-1.288-0.569c-0.226-0.143-0.445-0.291-0.688-0.498c-0.193-0.163-0.44-0.4-0.644-0.638   c0.358,0.263,0.092-0.215,0.07-0.424c-0.011-0.108,0.017-0.14,0.184,0.007c0.173,0.144,0.455,0.481,1.124,0.956   c-0.605-0.496-1.189-1.2-1.544-2.083c-0.36-0.876-0.476-1.916-0.272-2.911c0.334-2.101,2.322-3.315,3.524-4.652   c2.594-2.572,4.253-4.392,2.766-3.425c-3.876,4.369-4.523,4.683-4.964,4.761c-0.222,0.051-0.38-0.021-0.919,0.486   c-0.258,0.263-0.596,0.676-0.897,1.383c-0.29,0.698-0.546,1.725-0.321,3.029c-0.307-1.383-0.029-2.919,0.775-4.146   c0.186-0.294,0.459-0.629,0.675-0.855l0.627-0.663l1.26-1.307c1.683-1.729,3.365-3.411,4.931-5.128   c-3.134,3.702,1.44-0.153,6.71-5.153c2.151-2.319,8.28-8.287,11.856-12.139c-1.642,1.005,1.409-2.411-4.722,3.561   c2.137-2.304,5.506-5.806,9.519-9.491c-1.472,1.581-4.101,4.288-3.801,4.219c2.777-2.191,5.672-5.113,7.402-6.593   c1.263-1.297,2.538-2.606,3.777-3.879c-0.403,0.347-0.764,0.636-1.041,0.822l3.972-4.534c-5.515,5.814-2.766,2.471-2.879,2.212   c0.22,0.525,3.695-3.599,5.622-5.55l-4.606,3.818c1.838-2.233,7.473-6.904,6.019-6.23c-9.092,8.78-12.461,12.283-20.425,20.482   l3.586-2.975c-8.902,9.335-6.148,5.099-16.365,15.345c-1.987,2.266-5.829,6.118-9.13,9.499c-0.822,0.849-1.612,1.666-2.337,2.416   c-0.377,0.412-0.644,0.633-1.142,1.267c-0.39,0.516-0.677,1.055-0.874,1.57c-0.4,1.035-0.451,1.954-0.394,2.579l0.01,0.115   c0.005,0.109,0.01,0.077,0.015,0.122c0.011,0.052,0.021,0.102,0.03,0.148c0.025,0.125,0.054,0.25,0.081,0.343   c0.06,0.174,0.118,0.266,0.169,0.284c-0.104-0.575-0.216-0.136-0.005,0.961c0.121,0.542,0.361,1.242,0.821,1.965   c0.464,0.727,1.129,1.454,2.023,2.024c0.892,0.573,2,0.958,3.16,1.031c1.158,0.076,2.363-0.157,3.407-0.678   c1.053-0.473,1.949-1.431,2.371-1.895c0.527-0.557,1.008-1.083,1.414-1.553c3.364-4.387,15.014-16.175,11.23-12.858   c-3.173,3.16-7.153,7.703-10.032,9.916l6.036-6.249l-4.309,3.752C188.796,130.163,188.322,130.092,186.953,130.639z    M290.356,90.434c0.065,0.07,0.15,0.16,0.23,0.245c-0.091-0.091-0.178-0.18-0.263-0.265L290.356,90.434z" fill="#202020"/><path d="M179.033,384.597c1.893,1.64,6.24,6.027,5.659,4.897C184.495,389.902,176.843,381.738,179.033,384.597z" fill="#202020"/><path d="M183.96,390.115c0.38,0.235,0.281-0.094,2.251,1.855l-5.472-5.319L183.96,390.115z" fill="#202020"/><path d="M187.376,397.648c3.007,2.559,4.897,4.194,9.244,8.582c0.905,2.376-7.355-6.944-10.021-8.238   c7.936,8.074,11.036,9.89,17.682,16.412C201.324,410.834,188.175,397.33,187.376,397.648z" fill="#202020"/><polygon fill="#202020" points="182.891,395.021 187.509,399.307 187.113,398.825 182.492,394.536  "/><path d="M256.666,451.296c0.162-0.161,0.163-2.096,0.114-4.416c-0.063-2.313-0.137-4.967-0.188-6.817   C256.572,442.937,256.486,446.761,256.666,451.296z" fill="#202020"/><path d="M283.11,430.613l33.737-34.182C307.139,406.267,298.177,415.347,283.11,430.613z" fill="#202020"/><path d="M254.543,280.954c0.306,12.896,0.866,18.624,1.009,31.764c0.654-17.277-1.022-22.82-0.352-37.326   L254.543,280.954z" fill="#202020"/><path d="M257.134,285.503c-0.612,2.138-0.717-9.95-1.166-8.078c0.149,8.691,0.583,4.048,0.53,11.935   L257.134,285.503z" fill="#202020"/><polygon fill="#202020" points="247.02,343.938 246.702,340.027 246.818,343.176  "/><polygon fill="#202020" points="256.59,226.732 256.729,228.156 256.922,221.69  "/><path d="M256.869,229.581l-0.141-1.425L256.869,229.581z" fill="#202020"/><polygon fill="#202020" points="245.708,338.913 245.577,344.725 245.858,347.599  "/><path d="M248.99,287.619l0.196,5.199C249.148,291.786,249.4,284.674,248.99,287.619z" fill="#202020"/><polygon fill="#202020" points="256.851,187.243 256.615,180.918 256.555,181.564 256.789,187.868  "/><path d="M247.303,246.925c-0.47,3.591-0.127-10.372-0.543-2.982C246.833,250.516,247.079,247.849,247.303,246.925z" fill="#202020"/><path d="M250.493,170.603c0-0.853-0.017-1.752-0.069-2.618C250.451,169.017,250.474,169.883,250.493,170.603z" fill="#202020"/><path d="M250.493,170.603c0,2.755-0.18,5.509-0.044,7.398C250.662,174.568,250.582,173.317,250.493,170.603z" fill="#202020"/><path d="M250.384,139.043l-0.034,2.498c-0.232-2.551-0.198-1.342-0.011,0.937c0.016,2.647,0.165,2.498,0.267,2.813   c0.06,0.53,0.119,1.056,0.183,1.628c-0.064-0.816-0.121-1.549-0.17-2.17C250.622,140.646,250.599,138.144,250.384,139.043z" fill="#202020"/><path d="M213.33,95.102c6.647-6.399,8.394-8.026,8.298-7.414c6.274-6.11,4.869-5.594,8.5-9.432   C223.171,85.313,221.62,86.626,213.33,95.102z" fill="#202020"/><path d="M230.128,78.257c0.999-1.012,1.953-1.979,3.111-3.153c-0.768,0.769-1.437,1.438-2.039,2.041   C230.807,77.552,230.457,77.915,230.128,78.257z" fill="#202020"/><polygon fill="#202020" points="246.392,175.93 245.833,170.198 245.911,172.302  "/><path d="M203.519,104.652c1.226-1.193,3.154-3.144,4.194-4.007C207.803,100.037,202.297,105.843,203.519,104.652z" fill="#202020"/><path d="M233.739,84.556c0.41-0.252,1.635-1.445,2.978-2.78c1.365-1.357,2.872-2.881,3.75-3.698   c-1.241,1.208-2.463,2.175-3.669,3.231C235.643,82.313,234.605,83.305,233.739,84.556z" fill="#202020"/><path d="M185.87,124.431c1.226-1.193,3.26-2.879,2.668-1.86C190.17,120.687,192.092,117.853,185.87,124.431z" fill="#202020"/><polygon fill="#202020" points="221.771,96.431 222.79,95.588 227.089,90.958  "/><path d="M240.913,84.915c0.872-1.179,0.054-0.733-0.945-0.094c-0.859,0.679-1.603,1.246-1.608,1.087   c-0.002-0.08,0.18-0.341,0.625-0.861c0.31-0.354,0.786-0.898,1.479-1.689c-0.44,0.404-0.824,0.755-1.157,1.06   c-0.537,0.517-0.992,0.955-1.377,1.326c-0.766,0.745-1.241,1.226-1.514,1.524c-0.546,0.596-0.285,0.461,0.077,0.243   c0.723-0.437,1.845-1.205-2.293,2.884c2.461-2.357,4.379-4.028,5.637-5.034c0.155-0.122,0.3-0.235,0.433-0.339   c0.069-0.035,0.132-0.066,0.188-0.095c0.115-0.053,0.207-0.086,0.278-0.102C240.876,84.794,240.935,84.831,240.913,84.915z" fill="#202020"/><path d="M234.198,90.394c-0.708,0.692-1.476,1.442-2.309,2.255C232.812,91.749,233.555,91.022,234.198,90.394z" fill="#202020"/><path d="M181.025,121.68c-0.697,0.762-1.16,1.295-1.583,1.792C179.991,122.872,180.507,122.292,181.025,121.68z" fill="#202020"/><path d="M208.176,116.925l7.062-7.987c-4.718,5.334-17.381,17.96-16.133,17.633   c4.188-4.001,8.993-9.05,10.818-11.273L208.176,116.925z" fill="#202020"/><path d="M229.163,85.836l-3.069,3.434l4.113-4.006C228.975,86.357,230.74,83.916,229.163,85.836z" fill="#202020"/><path d="M231.002,84.488l-0.795,0.775C230.391,85.102,230.645,84.858,231.002,84.488z" fill="#202020"/><path d="M172.624,139.146c1.438,1.463,3.512,2.005,5.291,1.659c0.9-0.161,1.749-0.54,2.475-1.084   c0.769-0.599,1.184-1.167,1.741-1.731c-0.126,0.104-0.332,0.289-0.595,0.531c-0.264,0.23-0.556,0.554-1.036,0.923   c-0.905,0.709-2.249,1.224-3.558,1.224c-1.313,0.029-2.513-0.433-3.26-0.889c-0.372-0.218-0.665-0.445-0.849-0.576   C172.681,139.096,172.603,139.07,172.624,139.146z" fill="#202020"/><polygon fill="#202020" points="251.386,62.272 246.099,67.717 251.92,61.828  "/><polygon fill="#202020" points="268.131,71.353 268.97,72.365 273.584,76.649 272.731,75.622  "/><path d="M235.397,61.702c-3.687,3.589-6.114,6.844-5.075,5.979l7.035-7.072c-2.155,1.431-1.946,1.967-6.126,5.965   L235.397,61.702z" fill="#202020"/><path d="M254.465,122.777c-0.342-2.229-0.144-13.139,0.181-13.711c0.141,1.466,0.276,7.382,0.483,3.666l-0.84-8.632   c0.523-11.483,1.104,8.728,1.4,14.398c0.108-11.698-0.444-15.165-0.44-27.608c-0.075,3.67-0.285,5.99-0.465,7.928   c-0.295,0.211-0.377-2.582-0.392-6.463c0.005-5.853,0.011-13.347,0.016-19.595c-0.128,4.636-0.247,5.624-0.362,4.462   c-0.115-1.155-0.228-4.455-0.343-8.229c-0.019-1.33-0.052-2.245-0.092-2.921c-0.028-0.895-0.055-1.739-0.083-2.608l0.001,1.901   c-0.066-0.228-0.146,0.072-0.256,1.319c0.086,6.852,0.005,12.668-0.098,18.055c-0.013,0.673-0.026,1.337-0.04,1.992   c-0.006,0.305-0.013,0.607-0.02,0.908l-0.02,0.493c-0.025,0.652-0.05,1.287-0.074,1.906c-0.044,1.237-0.077,2.409-0.079,3.528   c0.961-4.424,0.222,15.248,0.518,20.877l0.095,6.499l0.002,2.432c-0.105,0.489-0.238-0.203-0.428-3.91   c0.189,3.094,0.123,13.413,0.432,12.46l0.014,23.549c-0.039,0.733-0.088,1.466-0.157,2.009c0.061,0.816,0.11,0.953,0.159,0.845   l0.062,102.601c0.076-5.062,0.295-9.44,0.401-14.66c0.638,7.833,0.115-8.558,0.719-6.259c0.219,3.521,0.15,8.674,0.003,11.743   c0.305,1.144,0.575-3.231,0.939-2.726c0.383-12.94-1.075-14.92-0.854-27.571c0.365,0.501,0.685,4.411,0.635-3.869l0.079,2.104   c-0.409-13.26,0.826-10.331-0.176-18.678l0.527,0.22c-0.397-6.015-0.4-17.717-0.473-24.312l0.102,0.394   c-0.604-18.5-0.128-10.385-0.381-31.158l0.615,9.561c0.254-7.167-0.415-8.782-0.346-13.927c0.102,0.369,0.487-0.824,0.583,4.035   l-0.938-25.206C254.679,114.604,254.689,121.841,254.465,122.777z" fill="#202020"/><path d="M255.249,90.889c0.009-0.667,0.018-1.379,0.028-2.149c-0.002-1.053-0.005-2.184-0.008-3.409   C255.261,87.401,255.255,89.182,255.249,90.889z" fill="#202020"/><path d="M253.644,268.135l-0.005-7.208C253.607,263.159,253.597,265.487,253.644,268.135z" fill="#202020"/><path d="M271.037,68.042c-2.838-3.03-1.797-2.124,0.162-0.288c1.949,1.827,4.8,4.567,5.366,4.991L255.4,51.593   c0.26,0.547-1.574-0.965-0.969-0.098L271.037,68.042z" fill="#202020"/><path d="M253.14,54.949c0.142,1.33,0.268,4.786,0.388,8.514c-0.001-4.582-0.003-9.164-0.003-13.742l1.875,1.871   c-0.12-0.244-0.641-0.883-2.12-2.464C253.227,50.207,253.179,52.109,253.14,54.949z" fill="#202020"/><polygon fill="#202020" points="263.981,75.91 263.999,77.708 264.156,80.584  "/><path d="M263.088,112.595c0.308-3.31,0.074-9.589-0.004-11.689C263.094,108.142,262.977,105.006,263.088,112.595z" fill="#202020"/><polygon fill="#202020" points="266.388,103.652 266.563,110.627 266.623,109.977  "/><path d="M255.719,321.408c0.011,1.144,0.022,2.254,0.034,3.409C255.756,323.256,255.741,322.237,255.719,321.408z" fill="#202020"/><path d="M255.217,261.552c-0.592,16.64-0.492-10.903-1.25-5.675l0.251,9.055l-0.203-0.771l0.066,11.043   c0.348-2.266,0.37-3.968,0.735-3.475c-0.143,14.742-0.434,4.647-0.895,15.463l0.066,16.478l-0.109-1.333   c0.008,1.388,0.054,2,0.113,2.477l0.228,55.532c0.29,10.103,0.657-5.589,1.195,1.863c-0.002-11.71,0.387-29.111-0.342-30.105   c0.101,0.393,0.302,1.168,0.388-1.206l-0.6-6.772l-0.191,6.458c-0.598-6.811-0.465-28.802-0.094-32.778   c0.204,12.506,0.924,6.23,0.533,23.652c0.185-0.782,0.51-3.972,0.611-0.05C255.508,300.995,255.84,282.699,255.217,261.552z" fill="#202020"/><path d="M280.459,432.456l-0.068,0.161C280.627,432.332,280.694,432.228,280.459,432.456z" fill="#202020"/><path d="M273.448,439.339l-12.008,13.019l18.508-18.589l0.442-1.151c-0.22,0.265-0.613,0.715-1.106,1.263   c-0.143,0.155-0.292,0.318-0.447,0.487c-0.232,0.245-0.473,0.498-0.719,0.758c-0.497,0.519-1.019,1.063-1.546,1.613   c-2.123,2.2-4.411,4.509-5.685,5.645L273.448,439.339z" fill="#202020"/><path d="M254.511,448.67c0.213,14.042,0.803,11.303,1.072,3.557c0.05,2.13,0.061,3.723,0.048,4.967   c1.906-1.866,2.303-2.063,2.892-2.551c0.579-0.478,1.393-1.289,3.965-4.222c-0.006-0.333-3.313,2.938-6.688,6.366   c-0.054-3.599-0.108-7.191-0.13-8.646C255.67,448.174,254.511,448.704,254.511,448.67z" fill="#202020"/><polygon fill="#202020" points="254.822,378.854 255.067,381.107 255.132,375.556  "/><path d="M255.067,381.107l-0.066,5.51c0.182-0.382,0.359-0.759,0.483-1.657L255.067,381.107z" fill="#202020"/><path d="M254.831,401.073c-0.027,2.332-0.057,4.913-0.093,8.053L254.831,401.073z" fill="#202020"/><path d="M254.981,394.772l-0.077,0.187l-0.073,6.114C254.885,398.82,254.933,396.799,254.981,394.772z" fill="#202020"/><path d="M255.001,386.617c-0.413,0.895-0.847,1.942-0.732,9.908l0.636-1.566L255.001,386.617z" fill="#202020"/><polygon fill="#202020" points="265.766,154.386 265.999,160.687 266.063,160.02 265.828,153.724  "/><path d="M265.388,190.74c0.073,1.558,0.149,2.738,0.228,3.811C265.57,192.91,265.5,191.605,265.388,190.74z" fill="#202020"/><path d="M268.211,217.764c-0.416,7.411-0.551-10.223-0.734,3.5c-0.387,1.21-0.887-5.223-0.693-11.685   c0.363,0.514,0.232,6.296,0.604,2.324c-0.421-4.292-0.134-5.923-0.683-4.428c-0.343-7.22-0.732-8.023-1.09-12.924   c0.242,8.728-0.322,27.053,0.383,38.13c0.66,6.105,1.561,2.402,2.514,2.427C268.736,234.188,268.842,218.36,268.211,217.764z" fill="#202020"/><path d="M269.162,206.103c0.047-3.43,0.008-4.478-0.07-6.582C268.766,200.089,269.147,203.332,269.162,206.103z" fill="#202020"/><path d="M261.985,284.923c0.137,0.655,0.305,6.86,0.539,5.526l-0.172-9.407   C262.329,283.25,262.164,284.028,261.985,284.923z" fill="#202020"/><path d="M262.28,276.916l0.072,4.126C262.364,280.01,262.346,278.734,262.28,276.916z" fill="#202020"/><path d="M261.901,285.37c0.028-0.148,0.054-0.282,0.084-0.447C261.957,284.791,261.928,284.815,261.901,285.37z" fill="#202020"/><path d="M254.594,423.901c-0.033-0.017-0.059,0.034-0.08,0.141c-0.01,0.053-0.019,0.12-0.027,0.199   c-0.008,0.103-0.014,0.113-0.019,0.333c-0.021,0.732-0.024,1.772-0.016,2.936c0.037,2.302,0.083,5.102,0.113,6.974   c0.015-1.532,0.033-3.373,0.052-5.29c0.002-0.953,0.005-1.924,0.008-2.885C254.623,425.382,254.614,424.233,254.594,423.901z" fill="#202020"/><path d="M319.372,392.396l-2.766,2.472C317.62,394.03,318.138,393.599,319.372,392.396z" fill="#202020"/><path d="M284.069,437.805c-0.04,0.111-0.203,0.335-0.436,0.624C283.87,438.146,284.022,437.933,284.069,437.805z" fill="#202020"/><path d="M283.633,438.429c-1.636,1.943-7.399,7.229-9.151,9.448l0.181-0.323l-3.558,3.836   C274.549,447.905,281.851,440.66,283.633,438.429z" fill="#202020"/></g></svg>