<!-- icon666.com - MILLIONS vector ICONS FREE --><svg id="object" viewBox="0 0 100 100" xmlns="http://www.w3.org/2000/svg" xmlns:xlink="http://www.w3.org/1999/xlink"><linearGradient id="New_Gradient_Swatch_17" gradientUnits="userSpaceOnUse" x1="5" x2="95" y1="50" y2="50"><stop offset="0" stop-color="#ffee9b"></stop><stop offset="1" stop-color="#ffd523"></stop></linearGradient><linearGradient id="New_Gradient_Swatch_29" gradientUnits="userSpaceOnUse" x1="38.774" x2="52.728" y1="26.461" y2="26.461"><stop offset="0" stop-color="#fb9300"></stop><stop offset="1" stop-color="#ffd523"></stop></linearGradient><linearGradient id="New_Gradient_Swatch_28" gradientUnits="userSpaceOnUse" x1="61.374" x2="75.328" y1="14.438" y2="14.438"><stop offset="0" stop-color="#ffeda4"></stop><stop offset="1" stop-color="#ffb830"></stop></linearGradient><linearGradient id="New_Gradient_Swatch_17-2" x1="62.08" x2="92.469" xlink:href="#New_Gradient_Swatch_17" y1="45.307" y2="45.307"></linearGradient><g id="_09" data-name="09"><path d="m95 66.275a46.819 46.819 0 1 1 -61.275-61.275 46.832 46.832 0 0 0 61.275 61.275z" fill="url(#New_Gradient_Swatch_17)"></path><path d="m46.254 20.164 1.284 3.954a.529.529 0 0 0 .5.365h4.162a.529.529 0 0 1 .311.956l-3.363 2.444a.527.527 0 0 0 -.192.591l1.284 3.954a.528.528 0 0 1 -.813.591l-3.363-2.444a.531.531 0 0 0 -.622 0l-3.363 2.444a.528.528 0 0 1 -.813-.591l1.284-3.954a.527.527 0 0 0 -.192-.591l-3.363-2.444a.528.528 0 0 1 .31-.956h4.158a.529.529 0 0 0 .5-.365l1.284-3.954a.529.529 0 0 1 1.007 0z" fill="url(#New_Gradient_Swatch_29)"></path><path d="m68.853 8.142 1.285 3.958a.529.529 0 0 0 .5.365h4.162a.529.529 0 0 1 .311.956l-3.364 2.444a.53.53 0 0 0 -.192.591l1.285 3.954a.528.528 0 0 1 -.813.591l-3.364-2.444a.527.527 0 0 0 -.621 0l-3.365 2.443a.529.529 0 0 1 -.814-.591l1.285-3.954a.528.528 0 0 0 -.192-.591l-3.363-2.444a.528.528 0 0 1 .31-.956h4.158a.526.526 0 0 0 .5-.365l1.285-3.954a.528.528 0 0 1 1.007-.003z" fill="url(#New_Gradient_Swatch_28)"></path><path d="m78.369 31.6 2.8 8.611a1.151 1.151 0 0 0 1.093.789h9.054a1.151 1.151 0 0 1 .677 2.082l-7.325 5.322a1.151 1.151 0 0 0 -.419 1.287l2.8 8.611a1.151 1.151 0 0 1 -1.771 1.287l-7.325-5.322a1.151 1.151 0 0 0 -1.353 0l-7.327 5.323a1.151 1.151 0 0 1 -1.773-1.29l2.8-8.611a1.152 1.152 0 0 0 -.418-1.287l-7.325-5.322a1.151 1.151 0 0 1 .676-2.08h9.055a1.151 1.151 0 0 0 1.094-.795l2.8-8.611a1.151 1.151 0 0 1 2.187.006z" fill="url(#New_Gradient_Swatch_17-2)"></path></g></svg>