<!-- icon666.com - MILLIONS vector ICONS FREE --><svg viewBox="0 0 59.24 59.24" xmlns="http://www.w3.org/2000/svg"><g id="Layer_2" data-name="Layer 2"><g id="Sol"><g fill="#1d1d1b"><path d="m28.62 52h2v7.23h-2z" fill="#1d1d1b" style="fill: rgb(255, 241, 82);"></path><path d="m52 28.62h7.23v2h-7.23z" fill="#1d1d1b" style="fill: rgb(255, 241, 82);"></path><path d="m0 28.62h7.23v2h-7.23z" fill="#1d1d1b" style="fill: rgb(255, 241, 82);"></path><path d="m7.62 47h7.23v2h-7.23z" transform="matrix(.707 -.707 .707 .707 -30.65 22)" fill="#1d1d1b" style="fill: rgb(255, 241, 82);"></path><path d="m29.62 10.09a19.7 19.7 0 1 0 19.7 19.7 19.73 19.73 0 0 0 -19.7-19.7zm0 37.39a17.7 17.7 0 1 1 17.7-17.69 17.72 17.72 0 0 1 -17.7 17.69z" fill="#1d1d1b" style="fill: rgb(255, 241, 82);"></path></g><path d="m47.32 29.79a17.7 17.7 0 1 1 -17.7-17.7 17.72 17.72 0 0 1 17.7 17.7z" fill="#f8d348" style="fill: rgb(254, 216, 77);"></path><path d="m28.62 0h2v7.23h-2z" fill="#1d1d1b" style="fill: rgb(255, 241, 82);"></path><path d="m44.39 10.23h7.23v2h-7.23z" fill="#1d1d1b" transform="matrix(.707 -.707 .707 .707 6.12 37.23)" style="fill: rgb(255, 241, 82);"></path><path d="m47 44.39h2v7.23h-2z" fill="#1d1d1b" transform="matrix(.707 -.707 .707 .707 -19.88 48)" style="fill: rgb(255, 241, 82);"></path><path d="m10.23 7.62h2v7.23h-2z" fill="#1d1d1b" transform="matrix(.707 -.707 .707 .707 -4.65 11.23)" style="fill: rgb(255, 241, 82);"></path></g></g></svg>