<?xml version="1.0" standalone="no"?>
<!DOCTYPE svg PUBLIC "-//W3C//DTD SVG 20010904//EN"
 "http://www.w3.org/TR/2001/REC-SVG-20010904/DTD/svg10.dtd">
<svg version="1.0" xmlns="http://www.w3.org/2000/svg"
 width="700.000000pt" height="700.000000pt" viewBox="0 0 700.000000 700.000000"
 preserveAspectRatio="xMidYMid meet">
<metadata>
Created by potrace 1.14, written by Peter Selinger 2001-2017
</metadata>
<g transform="translate(0.000000,700.000000) scale(0.100000,-0.100000)"
fill="#000000" stroke="none">
<path d="M785 6122 c-123 -13 -289 -74 -401 -148 -139 -93 -275 -267 -330
-424 -56 -162 -54 -61 -51 -2080 l3 -1865 21 -76 c99 -348 383 -599 733 -646
30 -4 1272 -7 2760 -7 l2705 0 96 22 c232 55 428 197 551 400 40 65 70 134 95
216 8 27 18 59 21 70 11 34 12 3734 1 3804 -11 77 -52 198 -91 272 -123 229
-337 390 -594 446 -74 16 -263 17 -2784 18 -1488 1 -2718 0 -2735 -2z m5405
-448 c7 -7 -99 -103 -352 -321 -530 -453 -736 -630 -798 -683 -30 -26 -188
-161 -350 -300 -162 -139 -320 -274 -350 -300 -30 -26 -109 -93 -175 -150 -66
-56 -145 -124 -175 -150 -30 -26 -153 -131 -273 -234 l-218 -186 -152 131
c-234 201 -256 221 -347 298 -47 40 -110 94 -140 120 -30 26 -93 80 -140 120
-47 40 -96 83 -110 95 -26 22 -565 484 -610 522 -22 19 -156 134 -230 198 -14
12 -151 129 -305 260 -154 132 -301 258 -326 280 -25 23 -56 50 -70 61 -52 42
-156 131 -191 164 -21 18 -47 40 -58 48 -11 8 -20 19 -20 25 0 6 3 9 6 6 3 -3
17 -3 32 2 44 12 5339 7 5352 -6z m-5685 -332 c17 -15 73 -63 125 -107 52 -44
97 -82 100 -86 3 -3 68 -59 145 -124 77 -65 147 -126 156 -134 9 -9 27 -25 40
-36 113 -94 215 -180 219 -185 3 -3 52 -46 110 -95 58 -49 110 -94 116 -100
11 -10 49 -42 204 -175 47 -40 110 -93 140 -120 30 -26 143 -122 250 -214 107
-92 196 -171 198 -175 2 -5 -3 -15 -11 -23 -12 -12 -199 -225 -372 -423 -163
-188 -219 -252 -234 -266 -9 -9 -32 -36 -50 -59 -19 -23 -40 -48 -46 -54 -6
-6 -62 -69 -124 -141 -63 -71 -130 -148 -150 -171 -20 -22 -58 -66 -86 -99
-27 -32 -55 -63 -61 -69 -11 -12 -70 -79 -154 -176 -30 -35 -60 -68 -65 -74
-6 -6 -89 -101 -185 -211 -95 -110 -186 -213 -201 -230 -15 -16 -46 -51 -69
-78 -24 -26 -45 -46 -47 -43 -13 13 -15 232 -15 1836 -1 1750 1 1860 30 1860
4 0 21 -13 37 -28z m6046 -14 c15 -54 17 -3599 2 -3637 -9 -22 -18 -14 -149
135 -76 88 -153 175 -170 194 -17 19 -80 91 -140 160 -60 69 -111 127 -114
130 -3 3 -66 75 -140 160 -74 85 -137 157 -140 160 -3 3 -34 39 -70 80 -36 41
-69 80 -75 86 -5 6 -35 40 -66 75 -31 35 -141 161 -244 279 -103 118 -213 244
-244 279 -31 35 -72 83 -92 105 -45 51 -187 215 -208 239 -17 20 -22 13 85
102 26 22 55 47 63 55 9 9 45 40 81 70 88 74 102 87 200 171 47 41 110 94 139
119 82 69 133 113 151 130 9 8 43 37 75 65 33 27 62 52 65 55 3 3 34 30 70 60
36 30 70 60 76 65 15 14 105 91 199 170 44 38 82 71 85 74 3 3 25 22 50 42 25
20 59 49 77 65 17 16 53 48 80 70 26 23 81 70 122 105 41 35 88 75 105 89 17
13 47 39 66 57 19 18 38 33 42 33 4 0 13 -19 19 -42z m-3721 -1979 c171 -147
344 -295 482 -412 37 -32 86 -66 109 -76 48 -22 123 -20 171 5 30 15 119 84
159 123 9 9 40 37 70 62 106 90 274 234 299 256 35 31 61 52 111 94 24 21 60
51 79 68 19 17 38 31 41 31 6 0 26 -22 138 -150 27 -30 88 -100 136 -155 48
-55 97 -111 109 -125 12 -14 85 -97 162 -185 77 -88 151 -173 164 -189 14 -16
36 -41 50 -56 14 -15 36 -40 50 -56 14 -16 117 -135 230 -264 113 -129 219
-250 235 -269 17 -19 68 -78 115 -131 47 -53 110 -125 141 -161 140 -161 304
-347 335 -382 l34 -38 -28 -12 c-41 -18 -5404 -17 -5447 1 -16 8 -25 16 -19
20 6 4 41 43 79 87 38 44 74 85 80 91 24 27 79 89 205 234 74 85 137 157 140
160 3 3 34 39 70 80 36 41 67 77 70 80 3 3 34 39 70 80 36 41 67 77 70 80 3 3
35 39 70 80 85 98 115 133 170 195 25 28 72 82 105 119 33 38 65 74 70 80 6 6
39 45 75 86 36 41 67 77 70 80 3 3 66 75 140 160 74 85 137 157 140 160 3 3
34 39 69 80 36 41 70 80 75 85 6 6 35 38 64 73 30 34 57 62 60 62 4 0 86 -68
182 -151z"/>
</g>
</svg>
